<svg width="35" height="40" viewBox="0 0 35 40" fill="none" xmlns="http://www.w3.org/2000/svg">
<path d="M27.7495 20C29.4401 18.7815 30.9067 17.4759 31.9902 16.2185C34.6525 13.1238 34.3536 10.9768 33.6342 9.7292C32.4013 7.60154 28.8611 6.72147 22.5279 10.0193C22.0141 2.69827 19.464 0 17.0633 0C14.6627 0 12.1126 2.69825 11.5988 10.029C9.90808 9.16827 8.2547 8.52031 6.79749 8.15281C2.90228 7.18569 1.2209 8.46228 0.501644 9.71954C-0.217615 10.9671 -0.52586 13.1044 2.14568 16.2089C3.22924 17.4661 4.70512 18.7717 6.39584 20C4.69577 21.2185 3.22924 22.5241 2.14568 23.7911C-0.516519 26.8859 -0.217615 29.0329 0.501644 30.2804C1.2209 31.528 2.90228 32.8144 6.79749 31.8473C8.26404 31.4797 9.90808 30.8317 11.5988 29.971C12.1126 37.3018 14.6627 40 17.0633 40C19.464 40 22.0141 37.3018 22.5279 29.971C24.2185 30.8317 25.8625 31.4797 27.3291 31.8473C31.2243 32.8144 32.9057 31.5378 33.6249 30.2804C34.8954 28.1044 33.9052 24.3424 27.7495 20Z" fill="white"/>
</svg>
