<svg width="131" height="154" viewBox="0 0 131 154" fill="none" xmlns="http://www.w3.org/2000/svg">
<path d="M106.5 77C112.988 72.3087 118.617 67.282 122.775 62.4413C132.992 50.5266 131.845 42.2606 129.085 37.4574C124.353 29.2659 110.766 25.8776 86.4595 38.5745C84.4876 10.3883 74.7008 0 65.4869 0C56.2738 0 46.4867 10.3883 44.515 38.6117C38.0261 35.2978 31.6807 32.8032 26.088 31.3883C11.1387 27.6649 4.6857 32.5798 1.92526 37.4202C-0.835184 42.2234 -2.01819 50.4521 8.23489 62.4042C12.3935 67.2444 18.0577 72.2711 24.5466 77C18.0219 81.6913 12.3935 86.718 8.23489 91.5958C-1.98235 103.511 -0.835184 111.777 1.92526 116.58C4.6857 121.383 11.1387 126.335 26.088 122.612C31.7165 121.197 38.0261 118.702 44.515 115.388C46.4867 143.612 56.2738 154 65.4869 154C74.7008 154 84.4876 143.612 86.4595 115.388C92.948 118.702 99.2576 121.197 104.886 122.612C119.835 126.335 126.289 121.42 129.049 116.58C133.925 108.202 130.125 93.7181 106.5 77Z" fill="#F2D4CD"/>
</svg>
