<svg width="136" height="104" viewBox="0 0 136 104" fill="none" xmlns="http://www.w3.org/2000/svg">
<path d="M49.1145 36.8108C44.1097 37.4668 39.0935 38.0909 34.1961 39.3532C32.3266 39.8352 30.5868 40.4615 29.4897 42.15C27.4583 45.2766 25.4363 50.1156 26.089 53.8921C26.7157 57.5185 30.2281 59.9017 33.3173 61.412C38.4703 63.9315 43.6645 64.9923 49.3889 64.3801C54.8354 63.7976 61.303 62.7053 66.3676 60.4773C69.5703 59.0683 72.2325 56.1625 73.3892 52.8975C73.7915 51.7622 74.5841 50.6329 74.7228 49.4284C74.8773 48.0878 74.3152 46.7004 73.9737 45.4261C73.3448 43.0789 72.9328 40.4219 71.3101 38.5016C69.9151 36.851 66.6447 34.8318 64.5608 34.1268C62.2705 33.3521 59.453 34.05 57.0772 33.9497C53.1463 33.7837 49.9223 34.412 46.1557 35.4212C44.5009 35.8646 42.9097 35.6112 41.2983 35.9953C38.9473 36.5558 36.6196 37.249 34.2849 37.8746C33.1102 38.1893 31.6693 38.3636 30.6301 39.0155C30.2087 39.2799 29.0347 39.8263 29.0249 40.4155C29.0117 41.2198 29.1459 41.0783 28.5712 41.5879" stroke="#FED1D1" stroke-width="50" stroke-linecap="round"/>
<path d="M20.121 15.4812C16.7587 17.082 14.3543 18.3934 15.3765 22.2083C15.792 23.7591 15.7253 24.4764 17.4991 24.5494C19.5825 24.635 21.6669 23.7963 23.6607 23.2621C25.1319 22.8679 25.0673 22.0792 25.1513 20.6803" stroke="#FED1D1" stroke-width="20" stroke-linecap="round"/>
<path d="M81.6288 14.2772C79.8708 15.499 79.1881 16.0275 79.7324 18.0589C80.0797 19.3551 81.1384 20.7045 82.6966 19.7702C83.3864 19.3567 82.3229 16.8676 82.1744 16.3133C81.7065 14.5671 81.7551 12.7266 79.7258 12.6048" stroke="#FED1D1" stroke-width="20" stroke-linecap="round"/>
<path d="M47.0625 61.7288L51.1348 60.6376" stroke="#47361B" stroke-width="5" stroke-linecap="round"/>
<path d="M46.7104 71.282C51.2995 70.7928 57.027 70.062 60.9634 67.4629" stroke="#47361B" stroke-width="3" stroke-linecap="round"/>
<path d="M61.0291 46.2788C59.8494 47.6722 58.6642 49.4748 57.1229 50.5181C57.0635 50.5583 56.6675 50.8217 56.783 50.9207C56.9664 51.078 57.4352 51.1045 57.6396 51.1389C58.1538 51.2253 58.6701 51.2802 59.1891 51.3272C59.8172 51.384 60.5545 51.3154 61.1625 51.4993C61.4292 51.5799 61.6797 51.7264 61.9478 51.8145C62.4576 51.9819 63.0863 51.953 63.6306 52.0644" stroke="#47351B" stroke-width="3" stroke-linecap="round"/>
<path d="M36.8767 52.9281C36.8129 53.4537 36.5466 54.3399 37.1617 54.6817C37.4923 54.8654 37.9526 54.7423 38.2924 54.6513C38.7622 54.5254 39.0447 54.1268 39.0737 53.6437C39.0985 53.2309 38.9535 52.8321 38.8481 52.4388C38.7451 52.0543 38.7717 51.7985 38.3265 51.7998C37.3356 51.8028 36.2931 52.0539 35.8636 53.0341C35.3822 54.1329 35.7341 55.3689 36.8705 55.811C37.4703 56.0442 38.8794 55.7173 39.4173 55.3622C39.8912 55.0493 39.8003 54.0306 39.6817 53.5879C39.3617 52.3939 37.1531 51.7604 36.2987 52.7325" stroke="#47351B" stroke-width="3" stroke-linecap="round"/>
<path d="M35.8685 52.6404C35.0024 53.1106 35.3591 54.9475 35.9742 55.6096C36.4447 56.1159 37.5373 55.6612 38.0789 55.4738C38.8442 55.209 38.7032 54.43 38.5477 53.8495C38.3431 53.086 38.32 52.8642 37.5737 52.6117" stroke="#47351B" stroke-width="3" stroke-linecap="round"/>
<path d="M36.731 86.7144C32.987 87.695 29.1419 88.5435 25.4805 89.8207C24.5791 90.1352 24.0117 90.4974 23.31 91.0951C22.0405 92.1766 21.0586 93.5838 20.4825 95.1572C19.8323 96.9327 20.1122 99.6991 22.1949 100.334C24.1244 100.923 26.4423 100.83 28.4474 100.972C31.3696 101.179 34.4069 101.162 37.3284 100.972C40.7245 100.75 42.1935 99.2731 43.0034 96.0334C43.3867 94.5002 44.1697 91.8796 42.9835 90.4778C42.1929 89.5435 40.694 87.5877 39.5188 87.1524C37.6861 86.4737 35.2295 86.4927 33.3459 86.8737C29.794 87.592 26.0886 89.2174 23.1507 91.354C22.482 91.8403 21.7728 92.1892 21.5179 93.0266C21.2277 93.9802 21.2772 95.0885 21.3387 96.0732C21.4415 97.7187 22.095 98.6546 23.6685 99.2194C25.1596 99.7547 26.8533 99.4044 28.3678 99.2194C29.0678 99.1339 34.8812 98.3287 35.6159 98.2238C35.8833 98.1856 38.1776 97.894 38.8816 97.6662C41.141 96.9352 42.4408 94.1469 42.7446 92.0509C43.1976 88.9253 38.9158 89.5818 36.8903 89.5818C32.6903 89.5818 27.966 90.7407 24.7836 93.7036C23.9635 94.4672 23.1507 95.5977 23.1507 96.7702C23.1507 98.9747 24.7408 99.0467 26.6155 99.1796C30.1539 99.4303 34.5131 99.3879 37.0098 96.3918C37.6668 95.6034 38.1647 94.4887 38.1647 93.4448C38.1647 92.2591 37.3443 92.1181 36.3527 91.9115C33.9765 91.4165 30.8869 91.3651 28.8656 92.8474C27.6743 93.721 26.5418 95.4787 26.058 96.8697C25.6005 98.1849 27.0836 98.5578 28.0492 98.7017C30.3858 99.0497 32.9487 98.9336 35.1978 98.1839C35.8953 97.9514 37.5528 97.5851 37.7665 96.7303C38.1962 95.0113 37.4769 92.524 35.4965 92.1704C33.589 91.8298 31.3297 92.1291 29.4829 92.6085C27.8002 93.0452 25.3899 93.6465 24.0667 94.8785C23.6297 95.2853 23.8573 96.0601 24.4251 96.2325C25.6829 96.6143 27.4344 96.3918 28.6864 96.3918C31.8977 96.3918 35.1132 96.4388 38.324 96.3719C39.5113 96.3472 40.6949 96.3046 41.8684 96.113C42.3941 96.0272 42.0803 96.0368 41.7888 96.0135C39.4876 95.8294 37.2928 95.6126 34.9787 95.894C33.8576 96.0304 32.7496 96.2457 31.6733 96.5909C30.9218 96.832 31.8635 96.7386 31.9919 96.7303C34.2059 96.5875 36.4768 95.8426 38.3638 94.6793C39.0513 94.2556 40.3153 93.4042 40.3153 92.4492C40.3153 91.7142 38.5467 92.2411 38.2842 92.3297C36.6861 92.869 34.48 93.7842 33.2663 94.9979C32.884 95.3802 34.2636 94.5767 34.7398 94.3209C36.4301 93.4132 38.1493 92.4728 39.698 91.3341C42.2481 89.459 33.8674 93.9226 31.3148 95.7944C31.2543 95.8389 31.1649 95.8792 31.1555 95.9537C31.1331 96.1329 31.5112 95.874 31.6733 95.7944C32.6635 95.3083 33.6201 94.7472 34.6004 94.2413C35.9853 93.5265 40.2002 91.8379 38.6426 91.8916C36.7545 91.9567 34.4811 93.0178 32.7087 93.6041C32.5484 93.6571 28.3889 95.1345 28.4474 95.2369C28.6809 95.6455 33.5662 94.0742 34.0628 93.9625C34.8025 93.7961 35.6707 93.7041 36.3726 93.385C36.8465 93.1696 35.3748 93.6913 34.8991 93.9028C33.6196 94.4714 31.9795 94.9181 30.8967 95.8343C30.0631 96.5396 32.0915 96.3918 32.2905 96.3918C33.416 96.3918 34.8145 96.2505 35.7951 96.9295C36.4027 97.3501 36.3423 97.6387 37.0894 97.8255" stroke="#FED1D1" stroke-width="3" stroke-linecap="round"/>
<path d="M74.7277 84.2063C73.991 86.8697 72.2759 90.6166 73.9312 93.2864C74.9809 94.9795 77.2732 96.1048 79.0686 96.7511C81.6393 97.6766 84.0478 97.8264 86.7548 97.8264C88.2085 97.8264 89.4953 97.8457 90.8568 97.2888C92.317 96.6914 94.3173 96.8082 95.5163 95.6758C96.8978 94.3711 97.2678 92.621 96.4323 90.857C95.3573 88.5876 93.8823 86.9735 91.6135 85.8391C90.5941 85.3294 89.6309 84.7398 88.6266 84.2063C86.6563 83.1596 84.1095 82.5003 81.9559 81.9363C79.5098 81.2956 76.8066 81.283 74.2896 81.3389C73.2021 81.3631 71.9172 81.6028 71.0041 82.2349C70.2946 82.7261 70.2134 83.9485 70.1478 84.724C69.8313 88.4694 72.6154 92.1087 75.8627 93.6647C78.0507 94.7131 80.745 94.9067 82.9714 93.8837C84.4416 93.2083 85.9984 92.3265 86.3167 90.5982C86.7413 88.2933 85.2205 86.6646 83.4294 85.4807C82.2106 84.675 80.9081 84.0867 79.5465 83.5691C78.5725 83.1988 77.4481 82.971 76.5995 82.3345C75.599 81.5841 75.0444 83.0667 74.7476 83.9076C74.1953 85.4726 73.9911 88.1293 74.9666 89.5826C76.6192 92.0447 83.0756 94.7437 84.7237 90.9765C87.3206 85.0408 76.1776 81.985 72.159 82.6332C70.9434 82.8293 70.5997 84.388 70.4664 85.4209C70.1931 87.539 72.3837 87.9805 74.0108 88.5074C74.977 88.8202 77.9677 89.9686 78.8097 88.8459C79.624 87.7602 77.9649 86.7062 77.2367 86.317C74.1685 84.6771 70.8835 83.6127 67.4796 82.9319C65.3396 82.5039 68.6431 84.0568 69.0327 84.2262C71.2118 85.1736 73.1659 86.6453 75.4445 87.3524C75.597 87.3997 78.6453 88.1714 78.0332 87.3923C77.457 86.6589 76.2215 86.2358 75.3052 86.3767C74.0266 86.5734 75.2643 88.7385 75.6835 89.1446C77.9411 91.3316 82.0494 91.8401 85.0025 92.231C85.8549 92.3438 86.9595 92.5569 87.8301 92.3704C89.6549 91.9794 87.2922 89.6155 86.9539 89.264C85.0292 87.264 82.7496 85.3899 80.3231 84.0271C79.719 83.6878 79.0196 83.3876 78.3119 83.5691C76.3847 84.0633 76.5952 87.42 76.7787 88.8061C77.2001 91.9899 80.0917 93.702 83.1307 94.0032C84.7066 94.1594 85.122 93.4256 85.122 92.0518C85.122 90.2293 84.3807 88.9321 82.9117 87.8303C82.376 87.4286 79.34 85.1008 78.5907 85.8789C77.6909 86.8134 77.7662 88.9767 78.1925 90.1004C78.9077 91.986 81.3955 92.5513 83.1706 92.7288C84.6575 92.8775 86.1589 92.7015 87.1929 91.5341C87.8228 90.8229 88.7533 89.8694 88.069 88.8658C87.5042 88.0373 86.1639 87.5451 85.3211 87.1931C82.3815 85.9656 79.2908 85.0834 76.1216 84.724C75.1011 84.6083 71.5692 83.7544 71.3824 85.5603C71.0618 88.6592 75.4033 90.3166 77.7146 90.8769C79.6908 91.356 82.8027 91.8672 84.6839 90.6579C85.03 90.4354 85.3158 89.8322 85.0822 89.4233C84.7702 88.8774 82.8778 89.2511 82.4537 89.4632C81.5497 89.9152 80.7916 90.6767 80.8209 91.7332C80.8576 93.0532 82.0521 93.1669 83.1108 93.1669C84.0335 93.1669 84.5392 92.5356 84.3255 91.5739C84.0598 90.3783 82.993 89.7147 81.9161 89.284C80.2095 88.6013 80.3267 90.573 80.5421 91.7332C80.9004 93.6623 83.5508 94.9828 85.4008 94.8594C87.1582 94.7423 87.0312 92.3501 86.7548 91.1756C86.218 88.894 83.8278 88.0804 81.7767 87.6511C80.395 87.3619 79.5947 87.3986 79.2279 88.8658C78.9029 90.166 79.1731 91.3673 80.4625 92.012C81.9039 92.7327 83.9673 93.1669 85.58 93.1669C85.8442 93.1669 85.0576 93.2541 84.8034 93.3262C83.8355 93.6007 82.6786 94.0049 81.936 94.7201C81.6598 94.986 84.8138 94.8536 85.122 94.7997C86.0903 94.6305 86.9862 94.2956 87.8898 93.9236C87.9665 93.892 89.3841 93.4655 88.3876 93.5452C86.1734 93.7224 83.6017 94.1676 81.7767 95.5166C80.5193 96.4459 83.9511 95.732 84.2458 95.636C85.0976 95.3587 85.9125 94.9829 86.7548 94.6802C87.3122 94.4799 87.5463 94.403 86.9938 94.8594C86.5612 95.2168 84.3125 96.9502 86.0778 96.9502C87.4899 96.9502 89.158 96.3541 90.2793 95.4966C90.8558 95.0558 91.4252 93.7148 92.2108 93.6846C92.7827 93.6626 92.7454 94.3107 93.087 94.5209C93.8372 94.9826 95.697 93.7085 96.1535 93.1868C97.068 92.1416 93.7361 92.4378 93.3657 92.45C92.2691 92.4862 91.2465 92.678 90.1997 93.0076C89.7999 93.1334 88.1351 93.5173 87.9097 94.043C87.7489 94.4183 91.1759 93.5127 91.4741 93.3461C92.0352 93.0325 92.9097 92.4991 92.5692 91.7332C92.1784 90.8537 92.8653 90.4877 92.9476 89.5826C93.0493 88.4634 92.2802 87.9258 91.3347 87.7109C90.1235 87.4356 89.009 86.9191 87.8699 86.4365C86.4243 85.8239 86.3976 86.3697 86.9739 87.8104C87.0048 87.8878 88.6794 90.8004 88.985 89.7818C89.221 88.995 87.9849 87.4732 87.8301 86.5958C87.6911 85.8084 89.2897 87.9939 89.4629 88.1888C90.1344 88.9442 90.7966 89.6978 91.4143 90.4986C91.7944 90.9913 92.2566 91.9154 92.848 92.2111C93.0258 92.3 93.0073 90.2014 93.0073 89.9809C93.0073 89.5035 93.0632 88.9822 93.0073 88.5074C92.9315 87.8625 91.9143 88.356 91.5736 88.4277C90.1644 88.7244 88.5687 88.3712 87.2924 87.7706C85.8678 87.1002 85.3568 86.3871 84.7636 85.0028C84.5346 84.4685 84.1785 84.2196 84.0268 83.6886C83.9612 83.459 82.4852 82.0829 82.2546 82.0557C81.5665 81.9748 79.4422 79.9459 80.5421 79.9052C82.6635 79.8266 84.1486 79.9906 85.8588 81.3588C87.9434 83.0265 90.5229 83.6821 92.629 85.2616C93.2354 85.7165 93.5343 86.05 93.7043 86.8148C93.7288 86.9252 93.5534 86.6461 93.4852 86.5559C92.7581 85.5951 92.0092 84.6786 91.3745 83.6487C89.9465 81.3316 89.2249 80.0268 86.6752 79.029C84.0793 78.0133 81.6335 76.8434 78.8695 76.3409C78.2205 76.2229 77.5711 76.4853 77.1172 76.9581C76.2596 77.8514 79.5489 78.2178 79.9049 78.2923C81.3406 78.5928 84.3049 79.0653 85.0423 80.622C85.608 81.8162 75.0157 82.4553 74.4489 82.4938C72.7316 82.6106 71.0584 82.9758 69.3513 83.131C68.7333 83.1872 68.1063 83.7535 67.5592 84.0271C66.5104 84.5515 65.5475 84.7562 64.413 85.0028C63.1585 85.2755 62.1006 86.0386 60.9284 86.5161C59.0352 87.2874 57.0167 87.0737 55.0144 87.0737C48.3991 87.0737 68.2319 87.7905 74.8472 87.7905C83.5423 87.7905 40.0668 87.7905 48.7619 87.7905C58.2535 87.7905 67.7451 87.7905 77.2367 87.7905" stroke="#FED1D1" stroke-width="3" stroke-linecap="round"/>
<path d="M70.7109 87.3659C70.7939 88.2871 70.8857 89.0601 71.338 89.8743C71.5457 90.2481 71.7238 90.5834 71.8948 90.9761C72.2148 91.7108 72.7316 92.3984 73.1842 93.0567C73.6115 93.6782 74.2408 94.0117 74.9248 94.3226C76.1139 94.8631 77.3451 95.3115 78.5175 95.8875C80.8325 97.0246 83.5032 96.9659 86.0135 96.9659C87.1311 96.9659 88.2525 96.9813 89.3424 96.6963C90.0901 96.5007 90.7506 96.3821 91.2823 95.782C91.6904 95.3214 92.1036 94.6464 92.1263 94.012C92.1504 93.336 92.0326 92.8267 91.6222 92.2655C91.1471 91.6158 90.5633 90.982 89.8757 90.5541C89.2155 90.1433 88.7175 90.9553 88.9673 91.5798C89.4175 92.7053 90.9761 93.364 92.1321 93.2677C92.662 93.2235 93.1483 92.852 93.4508 92.4296C93.7967 91.9467 93.7546 91.3395 93.8962 90.7886C93.9739 90.4867 94.3655 90.1291 94.6581 90.0267C94.8972 89.943 95.1553 90.5198 95.2735 90.6479C95.4019 90.787 95.1806 90.0998 95.1798 90.097C95.0479 89.6849 94.9153 89.2777 94.8222 88.8545C94.6545 88.0919 94.4217 87.2538 94.0193 86.5747C93.6345 85.9254 93.1915 85.2004 92.6772 84.6465C92.2462 84.1823 91.8999 83.6174 91.3292 83.2985C91.1026 83.1719 91.0519 82.9373 90.8545 82.7769C90.5695 82.5453 90.4458 82.2601 90.2215 81.9798C89.7526 81.3937 89.3173 80.8594 88.7094 80.4091C88.4145 80.1907 88.1652 79.9235 87.9065 79.6648C87.5711 79.3294 87.2127 79.073 86.8281 78.7974C86.2959 78.416 85.7007 77.963 85.0582 77.7893C84.8376 77.7297 84.6078 77.6604 84.3783 77.6604C84.0715 77.6604 84.7999 77.8001 84.8765 77.8304C85.7653 78.1822 86.6793 78.5068 87.59 78.7974C88.1296 78.9696 88.7507 79.0725 89.2252 79.4011C89.4833 79.5797 89.7012 79.8036 89.9578 79.9813C90.2669 80.1952 90.6291 80.3626 90.9072 80.6142C91.3574 81.0215 91.8979 81.2417 92.3373 81.6692C92.6196 81.9439 92.9458 82.16 93.2164 82.4487C93.7907 83.0612 94.3315 83.686 94.7636 84.4062C94.9382 84.6971 95.167 84.9483 95.3497 85.2325C95.5035 85.4717 95.6084 85.7913 95.7131 86.0531C95.8591 86.4181 95.9628 86.8008 96.1351 87.1549C96.2775 87.4477 96.4027 87.704 96.475 88.0223C96.6107 88.6193 96.8618 89.1827 96.9556 89.7922C97.0416 90.3515 96.979 90.9623 96.979 91.527C96.979 91.7943 96.672 92.1135 96.5336 92.3241C96.1614 92.8904 95.6598 93.3865 95.2325 93.9124C94.7282 94.533 94.1292 95.5314 93.2867 95.6999" stroke="#FED1D1" stroke-width="3" stroke-linecap="round"/>
<path d="M28.8097 84.9651C26.6501 85.8601 24.1096 86.6211 22.3857 88.3084C21.6543 89.0242 21.0377 89.8984 20.4515 90.7327C19.7626 91.713 19.0424 92.7347 19.0424 93.9797C19.0424 94.8002 18.9446 95.6764 19.4362 96.3865C19.9507 97.1296 20.4991 97.8128 21.0554 98.5133C21.8726 99.5423 23.6093 99.7697 24.81 100.01C25.8513 100.218 27.1071 100.156 28.162 100.071C29.5076 99.9635 30.2607 98.8157 30.4726 97.568C30.5819 96.9246 30.5426 96.257 30.5426 95.6076C30.5426 94.8082 30.5766 94.0009 30.4376 93.2095C30.3114 92.4912 30.0289 91.8377 29.8249 91.144C29.7244 90.8023 29.6797 90.4859 29.5186 90.1638C29.0946 89.3157 28.9672 88.59 28.9672 87.6432C28.9672 87.4211 29.2258 86.5661 28.9935 86.4704C28.0265 86.0722 26.4265 87.0632 25.6064 87.4507C24.2958 88.0699 22.9969 89.0412 22.2719 90.3301C21.6817 91.3793 20.4486 92.0389 19.7076 92.9995C19.5191 93.2438 19.1999 93.5437 19.1999 93.8659C19.1999 94.1664 19.1999 94.4669 19.1999 94.7674C19.1999 95.3702 19.0424 95.9335 19.0424 96.5441C19.0424 97.0034 18.8909 97.7786 19.0774 98.1982C19.6969 99.592 21.5661 99.8273 22.8233 100.316C23.8703 100.723 25.0106 100.694 26.0966 100.911C26.4329 100.979 26.6939 101.048 27.0418 101.034C27.1859 101.028 27.2706 100.973 27.1293 100.841C26.6496 100.395 25.9253 100.15 25.3526 99.8523C24.4735 99.3958 23.6868 98.8634 22.8933 98.277C22.5876 98.051 22.255 97.8483 21.8868 97.7431C21.7248 97.6968 21.1207 97.4884 20.9679 97.6031C20.7742 97.7483 20.913 99.3124 20.9504 99.546C21.1114 100.553 22.1947 100.825 22.9808 101.156C23.2801 101.282 23.677 101.304 23.9961 101.384C24.4912 101.508 24.987 101.762 25.4927 101.813C26.6695 101.93 27.7813 102.294 28.9672 102.294C30.0919 102.294 31.2213 102.325 32.3455 102.294C33.1138 102.273 33.8892 102.077 34.6386 101.97C35.3245 101.872 36.0642 101.769 36.7216 101.541C37.2344 101.364 37.6887 101.096 38.1831 100.876C38.3806 100.789 38.7035 100.68 38.8571 100.526C39.1141 100.269 39.404 100.159 39.6797 99.9223C40.1446 99.5239 40.5859 99.0685 41.0276 98.6445C41.776 97.926 42.2899 96.9232 42.918 96.0977C43.5393 95.2811 43.4606 94.2072 43.4606 93.2358C43.4606 92.2657 43.4876 91.2911 43.4606 90.3213C43.4435 89.7031 42.988 89.1911 42.988 88.5884" stroke="#FED1D1" stroke-width="3" stroke-linecap="round"/>
<path d="M96.3633 74.3899C97.1015 72.9016 97.8008 71.544 98.9943 70.3685C100.015 69.3631 101.138 68.4738 102.235 67.5557C103.87 66.1876 105.574 65.3361 107.529 64.529C109.787 63.5968 112.066 62.6526 114.534 62.4862C116.077 62.3823 117.642 62.4541 119.187 62.4541C120.3 62.4541 121.434 62.3932 122.545 62.4755C123.966 62.5808 125.513 63.1512 126.78 63.8017C127.42 64.13 127.695 65.0857 127.732 65.7482C127.822 67.3673 127.472 69.1018 126.545 70.4541C125.323 72.2364 123.18 73.0183 121.411 74.1119C120.797 74.4917 119.023 75.7052 119.689 75.4274C121.42 74.7062 123.42 74.4504 125.24 74.0049C126.179 73.7751 127.12 73.5534 128.085 73.4701C128.826 73.4063 129.577 73.4776 130.31 73.3311C131.455 73.102 131.995 73.7008 132.823 74.4755C133.569 75.173 134.269 75.9062 134.288 76.9782C134.311 78.2265 134.337 79.4217 133.689 80.5396C133.002 81.7266 131.73 82.8377 130.481 83.3952C129.094 84.0138 127.66 84.1092 126.203 84.4006" stroke="white" stroke-width="3" stroke-linecap="round"/>
</svg>
