<svg width="38" height="36" viewBox="0 0 38 36" fill="none" xmlns="http://www.w3.org/2000/svg">
<g clip-path="url(#clip0_20_2828)">
<path d="M19.2094 15.8308C17.6862 16.0304 16.1596 16.2204 14.6691 16.6045C14.1001 16.7512 13.5705 16.9418 13.2367 17.4558C12.6184 18.4073 12.003 19.88 12.2017 21.0294C12.3924 22.1331 13.4614 22.8584 14.4016 23.3181C15.9699 24.0849 17.5508 24.4077 19.2929 24.2214C20.9506 24.0442 22.919 23.7117 24.4604 23.0336C25.4351 22.6048 26.2453 21.7204 26.5974 20.7267C26.7198 20.3812 26.961 20.0375 27.0033 19.6709C27.0503 19.2629 26.8792 18.8406 26.7753 18.4528C26.5839 17.7384 26.4585 16.9298 25.9646 16.3454C25.54 15.843 24.5447 15.2285 23.9105 15.0139C23.2135 14.7781 22.3559 14.9905 21.6329 14.96C20.4365 14.9095 19.4553 15.1007 18.3089 15.4078C17.8053 15.5428 17.321 15.4657 16.8306 15.5826C16.1151 15.7532 15.4066 15.9641 14.6961 16.1545C14.3386 16.2503 13.9 16.3034 13.5837 16.5018C13.4555 16.5822 13.0982 16.7485 13.0952 16.9279C13.0912 17.1726 13.132 17.1295 12.9571 17.2847" stroke="#E0C5B5" stroke-width="15.2174" stroke-linecap="round"/>
<path d="M10.3854 9.33873C9.36208 9.82594 8.63029 10.225 8.9414 11.3861C9.06786 11.8581 9.04756 12.0764 9.58739 12.0986C10.2215 12.1247 10.8559 11.8694 11.4627 11.7068C11.9104 11.5868 11.8908 11.3468 11.9163 10.9211" stroke="#E0C5B5" stroke-width="6.08696" stroke-linecap="round"/>
<path d="M29.1051 8.97253C28.57 9.3444 28.3623 9.50522 28.5279 10.1235C28.6336 10.518 28.9558 10.9286 29.4301 10.6443C29.64 10.5185 29.3163 9.76092 29.2711 9.59223C29.1287 9.06075 29.1435 8.5006 28.5259 8.46352" stroke="#E0C5B5" stroke-width="6.08696" stroke-linecap="round"/>
<path d="M15.6886 20.869C15.6656 21.9137 16.4874 21.3714 16.2806 20.5997C16.0949 19.9065 15.6895 20.2046 15.1094 20.36" stroke="#47361B" stroke-width="1.52174" stroke-linecap="round"/>
<path d="M21.9001 20.0908C22.3902 20.7765 22.9517 20.7104 22.7264 19.8694" stroke="#47361B" stroke-width="1.52174" stroke-linecap="round"/>
<path d="M18.585 23.4141L19.8244 23.082" stroke="#47361B" stroke-width="1.52174" stroke-linecap="round"/>
<path d="M18.4778 26.3213C19.8745 26.1724 21.6176 25.95 22.8157 25.159" stroke="#47361B" stroke-width="0.913043" stroke-linecap="round"/>
</g>
<defs>
<clipPath id="clip0_20_2828">
<rect width="30.4348" height="28" fill="white" transform="translate(0.894531 8.41602) rotate(-15)"/>
</clipPath>
</defs>
</svg>
