<svg width="37" height="36" viewBox="0 0 37 36" fill="none" xmlns="http://www.w3.org/2000/svg">
<g clip-path="url(#clip0_20_2860)">
<path d="M18.3149 15.8308C16.7917 16.0304 15.265 16.2204 13.7745 16.6045C13.2055 16.7512 12.676 16.9418 12.3421 17.4558C11.7239 18.4073 11.1085 19.88 11.3071 21.0294C11.4979 22.1331 12.5669 22.8584 13.507 23.3181C15.0754 24.0849 16.6562 24.4077 18.3984 24.2214C20.056 24.0442 22.0245 23.7117 23.5658 23.0336C24.5406 22.6048 25.3508 21.7204 25.7029 20.7267C25.8253 20.3812 26.0665 20.0375 26.1087 19.6709C26.1557 19.2629 25.9847 18.8406 25.8808 18.4528C25.6893 17.7384 25.564 16.9298 25.0701 16.3454C24.6455 15.843 23.6502 15.2285 23.0159 15.0139C22.3189 14.7781 21.4614 14.9905 20.7383 14.96C19.542 14.9095 18.5607 15.1007 17.4144 15.4078C16.9108 15.5428 16.4265 15.4657 15.9361 15.5826C15.2206 15.7532 14.5121 15.9641 13.8015 16.1545C13.444 16.2503 13.0055 16.3034 12.6892 16.5018C12.561 16.5822 12.2036 16.7485 12.2007 16.9279C12.1967 17.1726 12.2375 17.1295 12.0626 17.2847" stroke="#E3EFBF" stroke-width="15.2174" stroke-linecap="round"/>
<path d="M9.49083 9.33873C8.46754 9.82594 7.73576 10.225 8.04686 11.3861C8.17333 11.8581 8.15303 12.0764 8.69286 12.0986C9.32695 12.1247 9.96135 11.8694 10.5681 11.7068C11.0159 11.5868 10.9963 11.3468 11.0218 10.9211" stroke="#E3EFBF" stroke-width="6.08696" stroke-linecap="round"/>
<path d="M28.2106 8.97253C27.6755 9.3444 27.4677 9.50522 27.6334 10.1235C27.7391 10.518 28.0613 10.9286 28.5355 10.6443C28.7455 10.5185 28.4218 9.76092 28.3766 9.59223C28.2342 9.06075 28.249 8.5006 27.6314 8.46352" stroke="#E3EFBF" stroke-width="6.08696" stroke-linecap="round"/>
<path d="M14.7941 20.869C14.7711 21.9137 15.5929 21.3714 15.3861 20.5997C15.2003 19.9065 14.795 20.2046 14.2149 20.36" stroke="#47361B" stroke-width="1.52174" stroke-linecap="round"/>
<path d="M21.0056 20.0908C21.4957 20.7765 22.0572 20.7104 21.8319 19.8694" stroke="#47361B" stroke-width="1.52174" stroke-linecap="round"/>
<path d="M17.6904 23.4141L18.9298 23.082" stroke="#47361B" stroke-width="1.52174" stroke-linecap="round"/>
<path d="M17.5833 26.3213C18.9799 26.1724 20.7231 25.95 21.9211 25.159" stroke="#47361B" stroke-width="0.913043" stroke-linecap="round"/>
</g>
<defs>
<clipPath id="clip0_20_2860">
<rect width="30.4348" height="28" fill="white" transform="translate(0 8.41602) rotate(-15)"/>
</clipPath>
</defs>
</svg>
