<svg width="31" height="28" viewBox="0 0 31 28" fill="none" xmlns="http://www.w3.org/2000/svg">
<g clip-path="url(#clip0_20_2804)">
<path d="M15.772 11.9023C14.249 11.7009 12.7252 11.4893 11.1861 11.4746C10.5985 11.469 10.0377 11.5161 9.58215 11.9261C8.73868 12.6852 7.76309 13.9484 7.65748 15.1101C7.55607 16.2255 8.40091 17.2028 9.19009 17.8901C10.5065 19.0367 11.9499 19.7577 13.681 20.0287C15.328 20.2865 17.3154 20.4748 18.9798 20.2188C20.0323 20.0568 21.0438 19.4123 21.641 18.5436C21.8487 18.2415 22.1707 17.9719 22.3064 17.6288C22.4573 17.2468 22.4014 16.7947 22.4014 16.3932C22.4014 15.6536 22.4896 14.8401 22.1638 14.1477C21.8837 13.5526 21.0814 12.7014 20.5242 12.33C19.912 11.9218 19.0287 11.9051 18.3382 11.6885C17.1957 11.33 16.1984 11.2607 15.0116 11.2607C14.4902 11.2607 14.0424 11.0609 13.5384 11.0469C12.8032 11.0265 12.0643 11.0469 11.3286 11.0469C10.9585 11.0469 10.5212 10.9846 10.1643 11.0944C10.0196 11.1389 9.63142 11.2071 9.58215 11.3795C9.51492 11.6149 9.56553 11.5839 9.35641 11.6885" stroke="#DDA2A2" stroke-width="15.2174" stroke-linecap="round"/>
<path d="M8.92862 3.34766C7.8141 3.55343 7.00395 3.74952 7.00395 4.95154C7.00395 5.44017 6.92784 5.64579 7.44352 5.80697C8.04927 5.99624 8.72812 5.91389 9.35632 5.91389C9.81987 5.91389 9.86303 5.67692 9.99788 5.27232" stroke="#DDA2A2" stroke-width="6.08696" stroke-linecap="round"/>
<path d="M27.1054 7.83883C26.4923 8.05954 26.25 8.1611 26.25 8.80118C26.25 9.20958 26.4549 9.68966 26.9866 9.53776C27.222 9.47053 27.1054 8.65503 27.1054 8.4804C27.1054 7.93017 27.2647 7.39293 26.6777 7.19727" stroke="#DDA2A2" stroke-width="6.08696" stroke-linecap="round"/>
<path d="M11.0669 15.8578C10.7743 16.8609 11.7084 16.5498 11.7084 15.7508C11.7084 15.0332 11.2397 15.2162 10.6392 15.2162" stroke="#47361B" stroke-width="1.52174" stroke-linecap="round"/>
<path d="M17.2681 16.7139C17.564 17.503 18.1235 17.5845 18.1235 16.7139" stroke="#47361B" stroke-width="1.52174" stroke-linecap="round"/>
<path d="M13.2058 19.0654H14.4889" stroke="#47361B" stroke-width="1.52174" stroke-linecap="round"/>
<path d="M12.3499 21.8457C13.7375 22.0634 15.4788 22.2997 16.8407 21.8457" stroke="#47361B" stroke-width="0.913043" stroke-linecap="round"/>
</g>
<defs>
<clipPath id="clip0_20_2804">
<rect width="30.4348" height="28" fill="white"/>
</clipPath>
</defs>
</svg>
