<svg width="31" height="31" viewBox="0 0 31 31" fill="none" xmlns="http://www.w3.org/2000/svg">
<path d="M20.7603 22.0062C22.3368 22.5053 23.8523 22.8262 25.153 22.9283C28.3504 23.1748 29.4921 22.0101 29.8883 20.988C30.5602 19.2451 29.3356 16.635 24.1922 14.1942C28.3595 10.5246 28.7178 7.70441 27.5265 6.20913C26.3329 4.71098 23.4376 4.35244 18.7509 7.38709C18.4342 5.93915 18.0034 4.61344 17.4951 3.53492C16.1453 0.660449 14.5312 0.198761 13.4219 0.31998C12.3077 0.440507 10.8669 1.22997 10.3197 4.30999C10.0989 5.56324 10.039 7.08069 10.1468 8.69564C8.56809 8.19368 7.04755 7.87209 5.74414 7.7722C2.54665 7.52561 1.40483 8.69028 1.00891 9.7125C0.612961 10.7347 0.672559 12.3682 3.19566 14.3548C4.14189 15.102 5.35583 15.8351 6.71397 16.495C2.53874 20.1658 2.17769 22.9884 3.37118 24.4866C4.56478 25.9845 7.46 26.3432 12.144 23.3106C12.4607 24.7585 12.8915 26.0841 13.3998 27.1627C14.7495 30.0372 16.3608 30.5011 17.4751 30.3806C19.4186 30.1712 21.1992 27.8318 20.7603 22.0062Z" fill="#FFD97A"/>
</svg>
