<svg width="31" height="31" viewBox="0 0 31 31" fill="none" xmlns="http://www.w3.org/2000/svg">
<path d="M20.7598 22.0062C22.3363 22.5053 23.8518 22.8262 25.1525 22.9283C28.3499 23.1748 29.4916 22.0101 29.8878 20.988C30.5597 19.2451 29.3351 16.635 24.1917 14.1942C28.359 10.5246 28.7173 7.70441 27.526 6.20913C26.3324 4.71098 23.4371 4.35244 18.7504 7.38709C18.4337 5.93915 18.0029 4.61344 17.4946 3.53492C16.1449 0.660449 14.5307 0.198761 13.4215 0.31998C12.3072 0.440507 10.8664 1.22997 10.3192 4.30999C10.0984 5.56324 10.0385 7.08069 10.1463 8.69564C8.5676 8.19368 7.04706 7.87209 5.74365 7.7722C2.54616 7.52561 1.40435 8.69028 1.00842 9.7125C0.612473 10.7347 0.672071 12.3682 3.19517 14.3548C4.1414 15.102 5.35535 15.8351 6.71348 16.495C2.53825 20.1658 2.1772 22.9884 3.37069 24.4866C4.56429 25.9845 7.45952 26.3432 12.1435 23.3106C12.4602 24.7585 12.891 26.0841 13.3993 27.1627C14.749 30.0372 16.3603 30.5011 17.4746 30.3806C19.4181 30.1712 21.1987 27.8318 20.7598 22.0062Z" fill="#FFD97A"/>
</svg>
