<svg width="36" height="36" viewBox="0 0 36 36" fill="none" xmlns="http://www.w3.org/2000/svg">
<path d="M28.6622 9.90837C28.2713 8.65059 27.5797 7.63012 26.4971 6.92608C25.3394 6.18249 24.0765 5.89771 22.7308 6.03219C21.0243 6.20622 19.6937 7.07638 18.6562 8.48447C18.1525 9.17268 17.7466 9.92419 17.5511 10.7785C17.5211 10.8972 17.4684 10.8418 17.4534 10.7944C17.2053 9.94792 16.852 9.18059 16.3408 8.48447C15.3033 7.07638 13.9727 6.20622 12.2662 6.03219C10.9205 5.89771 9.65756 6.18249 8.49984 6.92608C7.4173 7.62221 6.71816 8.64268 6.33476 9.90837C6.0566 10.7944 5.94384 11.712 6.02653 12.6454C6.08667 13.3257 6.27462 13.9902 6.53774 14.6231C7.29702 16.4741 8.43971 18.0562 9.65757 19.5909C10.71 20.9199 15.6867 26.9715 17.1151 28.7276C17.1301 28.7434 17.1377 28.7592 17.1527 28.7751C17.1828 28.8067 17.2053 28.8463 17.2354 28.8779C17.3481 28.9807 17.5511 29.0915 17.7767 28.8779C17.8142 28.8304 17.8518 28.783 17.8969 28.7276C19.3328 26.9715 24.2945 20.9199 25.3469 19.5909C26.5648 18.0562 27.7075 16.4741 28.4668 14.6231C28.7224 13.9902 28.9178 13.3336 28.978 12.6454C29.0532 11.712 28.9329 10.7944 28.6622 9.90837Z" fill="#E7AACD"/>
</svg>
