<svg width="136" height="104" viewBox="0 0 136 104" fill="none" xmlns="http://www.w3.org/2000/svg">
<path d="M49.1145 36.8103C44.1097 37.4663 39.0935 38.0904 34.1961 39.3528C32.3266 39.8347 30.5868 40.461 29.4897 42.1496C27.4583 45.2761 25.4363 50.1151 26.089 53.8916C26.7157 57.518 30.2281 59.9012 33.3173 61.4116C38.4703 63.931 43.6645 64.9918 49.3889 64.3796C54.8354 63.7972 61.303 62.7049 66.3676 60.4768C69.5703 59.0678 72.2325 56.162 73.3892 52.8971C73.7915 51.7617 74.5841 50.6324 74.7228 49.4279C74.8773 48.0873 74.3152 46.6999 73.9737 45.4256C73.3448 43.0784 72.9328 40.4214 71.3101 38.5012C69.9151 36.8505 66.6447 34.8313 64.5608 34.1264C62.2705 33.3516 59.453 34.0496 57.0772 33.9492C53.1463 33.7832 49.9223 34.4115 46.1557 35.4208C44.5009 35.8642 42.9097 35.6107 41.2983 35.9949C38.9473 36.5553 36.6196 37.2485 34.2849 37.8741C33.1102 38.1888 31.6693 38.3631 30.6301 39.015C30.2087 39.2794 29.0347 39.8258 29.0249 40.4151C29.0117 41.2193 29.1459 41.0778 28.5712 41.5874" stroke="#FED1D1" stroke-width="50" stroke-linecap="round"/>
<path d="M20.121 15.481C16.7587 17.0818 14.3543 18.3931 15.3765 22.2081C15.792 23.7589 15.7253 24.4762 17.4991 24.5491C19.5825 24.6348 21.6669 23.7961 23.6607 23.2618C25.1319 22.8676 25.0673 22.0789 25.1513 20.6801" stroke="#FED1D1" stroke-width="20" stroke-linecap="round"/>
<path d="M81.6288 14.277C79.8708 15.4988 79.1881 16.0272 79.7324 18.0586C80.0797 19.3549 81.1384 20.7042 82.6966 19.77C83.3864 19.3564 82.3229 16.8674 82.1744 16.3131C81.7065 14.5668 81.7551 12.7263 79.7258 12.6045" stroke="#FED1D1" stroke-width="20" stroke-linecap="round"/>
<path d="M47.0625 61.7285L51.1348 60.6373" stroke="#47361B" stroke-width="5" stroke-linecap="round"/>
<path d="M46.7104 71.2817C51.2995 70.7925 57.027 70.0617 60.9634 67.4627" stroke="#47361B" stroke-width="3" stroke-linecap="round"/>
<path d="M61.0291 46.2785C59.8494 47.6719 58.6642 49.4746 57.1229 50.5179C57.0635 50.5581 56.6675 50.8214 56.783 50.9204C56.9664 51.0778 57.4352 51.1043 57.6396 51.1386C58.1538 51.225 58.6701 51.28 59.1891 51.327C59.8172 51.3838 60.5545 51.3151 61.1625 51.499C61.4292 51.5797 61.6797 51.7262 61.9478 51.8142C62.4576 51.9816 63.0863 51.9528 63.6306 52.0642" stroke="#47351B" stroke-width="3" stroke-linecap="round"/>
<path d="M36.8767 52.9278C36.8129 53.4535 36.5466 54.3397 37.1617 54.6814C37.4923 54.8652 37.9526 54.7421 38.2924 54.651C38.7622 54.5251 39.0447 54.1265 39.0737 53.6435C39.0985 53.2307 38.9535 52.8318 38.8481 52.4385C38.7451 52.0541 38.7717 51.7983 38.3265 51.7996C37.3356 51.8026 36.2931 52.0536 35.8636 53.0338C35.3822 54.1326 35.7341 55.3687 36.8705 55.8107C37.4703 56.044 38.8794 55.7171 39.4173 55.3619C39.8912 55.049 39.8003 54.0304 39.6817 53.5877C39.3617 52.3937 37.1531 51.7602 36.2987 52.7323" stroke="#47351B" stroke-width="3" stroke-linecap="round"/>
<path d="M35.8685 52.6404C35.0024 53.1106 35.3591 54.9475 35.9742 55.6096C36.4447 56.1159 37.5373 55.6612 38.0789 55.4738C38.8442 55.209 38.7032 54.43 38.5477 53.8495C38.3431 53.086 38.32 52.8642 37.5737 52.6117" stroke="#47351B" stroke-width="3" stroke-linecap="round"/>
<path d="M36.731 86.7141C32.987 87.6947 29.1419 88.5432 25.4805 89.8205C24.5791 90.1349 24.0117 90.4971 23.31 91.0949C22.0405 92.1763 21.0586 93.5836 20.4825 95.157C19.8323 96.9325 20.1122 99.6988 22.1949 100.334C24.1244 100.923 26.4423 100.829 28.4474 100.971C31.3696 101.178 34.4069 101.162 37.3284 100.971C40.7245 100.75 42.1935 99.2728 43.0034 96.0332C43.3867 94.5 44.1697 91.8794 42.9835 90.4776C42.1929 89.5432 40.694 87.5875 39.5188 87.1522C37.6861 86.4734 35.2295 86.4925 33.3459 86.8734C29.794 87.5918 26.0886 89.2171 23.1507 91.3537C22.482 91.8401 21.7728 92.1889 21.5179 93.0264C21.2277 93.9799 21.2772 95.0882 21.3387 96.073C21.4415 97.7185 22.095 98.6543 23.6685 99.2191C25.1596 99.7544 26.8533 99.4042 28.3678 99.2191C29.0678 99.1336 34.8812 98.3285 35.6159 98.2235C35.8833 98.1853 38.1776 97.8937 38.8816 97.666C41.141 96.935 42.4408 94.1467 42.7446 92.0507C43.1976 88.9251 38.9158 89.5815 36.8903 89.5815C32.6903 89.5815 27.966 90.7405 24.7836 93.7034C23.9635 94.4669 23.1507 95.5975 23.1507 96.7699C23.1507 98.9745 24.7408 99.0465 26.6155 99.1793C30.1539 99.4301 34.5131 99.3876 37.0098 96.3916C37.6668 95.6032 38.1647 94.4884 38.1647 93.4445C38.1647 92.2589 37.3443 92.1179 36.3527 91.9113C33.9765 91.4162 30.8869 91.3649 28.8656 92.8472C27.6743 93.7208 26.5418 95.4785 26.058 96.8695C25.6005 98.1847 27.0836 98.5576 28.0492 98.7014C30.3858 99.0494 32.9487 98.9334 35.1978 98.1837C35.8953 97.9512 37.5528 97.5849 37.7665 96.7301C38.1962 95.0111 37.4769 92.5238 35.4965 92.1701C33.589 91.8295 31.3297 92.1289 29.4829 92.6082C27.8002 93.0449 25.3899 93.6463 24.0667 94.8782C23.6297 95.2851 23.8573 96.0599 24.4251 96.2323C25.6829 96.6141 27.4344 96.3916 28.6864 96.3916C31.8977 96.3916 35.1132 96.4386 38.324 96.3717C39.5113 96.3469 40.6949 96.3044 41.8684 96.1128C42.3941 96.027 42.0803 96.0366 41.7888 96.0132C39.4876 95.8291 37.2928 95.6123 34.9787 95.8938C33.8576 96.0301 32.7496 96.2455 31.6733 96.5907C30.9218 96.8317 31.8635 96.7384 31.9919 96.7301C34.2059 96.5872 36.4768 95.8424 38.3638 94.6791C39.0513 94.2553 40.3153 93.4039 40.3153 92.4489C40.3153 91.7139 38.5467 92.2408 38.2842 92.3294C36.6861 92.8688 34.48 93.7839 33.2663 94.9977C32.884 95.3799 34.2636 94.5764 34.7398 94.3207C36.4301 93.4129 38.1493 92.4725 39.698 91.3338C42.2481 89.4587 33.8674 93.9224 31.3148 95.7942C31.2543 95.8386 31.1649 95.879 31.1555 95.9535C31.1331 96.1327 31.5112 95.8738 31.6733 95.7942C32.6635 95.3081 33.6201 94.747 34.6004 94.241C35.9853 93.5262 40.2002 91.8377 38.6426 91.8914C36.7545 91.9565 34.4811 93.0176 32.7087 93.6038C32.5484 93.6569 28.3889 95.1343 28.4474 95.2367C28.6809 95.6453 33.5662 94.074 34.0628 93.9623C34.8025 93.7958 35.6707 93.7039 36.3726 93.3848C36.8465 93.1694 35.3748 93.6911 34.8991 93.9025C33.6196 94.4712 31.9795 94.9178 30.8967 95.834C30.0631 96.5393 32.0915 96.3916 32.2905 96.3916C33.416 96.3916 34.8145 96.2503 35.7951 96.9292C36.4027 97.3498 36.3423 97.6385 37.0894 97.8253" stroke="#FED1D1" stroke-width="3" stroke-linecap="round"/>
<path d="M74.7277 84.206C73.991 86.8694 72.2759 90.6163 73.9312 93.2861C74.9809 94.9792 77.2732 96.1045 79.0686 96.7509C81.6393 97.6763 84.0478 97.8262 86.7548 97.8262C88.2085 97.8262 89.4953 97.8455 90.8568 97.2885C92.317 96.6911 94.3173 96.808 95.5163 95.6756C96.8978 94.3709 97.2678 92.6207 96.4323 90.8568C95.3573 88.5873 93.8823 86.9733 91.6135 85.8389C90.5941 85.3292 89.6309 84.7396 88.6266 84.206C86.6563 83.1593 84.1095 82.5001 81.9559 81.936C79.5098 81.2954 76.8066 81.2827 74.2896 81.3386C73.2021 81.3628 71.9172 81.6026 71.0041 82.2347C70.2946 82.7259 70.2134 83.9482 70.1478 84.7238C69.8313 88.4691 72.6154 92.1084 75.8627 93.6644C78.0507 94.7129 80.745 94.9064 82.9714 93.8835C84.4416 93.208 85.9984 92.3263 86.3167 90.5979C86.7413 88.2931 85.2205 86.6644 83.4294 85.4804C82.2106 84.6747 80.9081 84.0865 79.5465 83.5688C78.5725 83.1986 77.4481 82.9708 76.5995 82.3343C75.599 81.5839 75.0444 83.0665 74.7476 83.9073C74.1953 85.4723 73.9911 88.1291 74.9666 89.5824C76.6192 92.0444 83.0756 94.7434 84.7237 90.9763C87.3206 85.0406 76.1776 81.9848 72.159 82.633C70.9434 82.829 70.5997 84.3877 70.4664 85.4207C70.1931 87.5388 72.3837 87.9802 74.0108 88.5071C74.977 88.82 77.9677 89.9684 78.8097 88.8456C79.624 87.76 77.9649 86.706 77.2367 86.3168C74.1685 84.6769 70.8835 83.6124 67.4796 82.9316C65.3396 82.5036 68.6431 84.0565 69.0327 84.2259C71.2118 85.1734 73.1659 86.645 75.4445 87.3522C75.597 87.3995 78.6453 88.1711 78.0332 87.392C77.457 86.6587 76.2215 86.2355 75.3052 86.3765C74.0266 86.5732 75.2643 88.7383 75.6835 89.1443C77.9411 91.3314 82.0494 91.8399 85.0025 92.2308C85.8549 92.3436 86.9595 92.5567 87.8301 92.3701C89.6549 91.9791 87.2922 89.6153 86.9539 89.2638C85.0292 87.2637 82.7496 85.3897 80.3231 84.0268C79.719 83.6875 79.0196 83.3874 78.3119 83.5688C76.3847 84.063 76.5952 87.4197 76.7787 88.8058C77.2001 91.9896 80.0917 93.7018 83.1307 94.003C84.7066 94.1591 85.122 93.4254 85.122 92.0515C85.122 90.229 84.3807 88.9319 82.9117 87.8301C82.376 87.4283 79.34 85.1006 78.5907 85.8787C77.6909 86.8131 77.7662 88.9764 78.1925 90.1001C78.9077 91.9857 81.3955 92.5511 83.1706 92.7286C84.6575 92.8773 86.1589 92.7012 87.1929 91.5338C87.8228 90.8227 88.7533 89.8692 88.069 88.8655C87.5042 88.0371 86.1639 87.5448 85.3211 87.1929C82.3815 85.9654 79.2908 85.0832 76.1216 84.7238C75.1011 84.608 71.5692 83.7542 71.3824 85.5601C71.0618 88.6589 75.4033 90.3164 77.7146 90.8767C79.6908 91.3558 82.8027 91.867 84.6839 90.6577C85.03 90.4352 85.3158 89.8319 85.0822 89.4231C84.7702 88.8771 82.8778 89.2509 82.4537 89.4629C81.5497 89.9149 80.7916 90.6765 80.8209 91.7329C80.8576 93.053 82.0521 93.1666 83.1108 93.1666C84.0335 93.1666 84.5392 92.5354 84.3255 91.5736C84.0598 90.378 82.993 89.7145 81.9161 89.2837C80.2095 88.6011 80.3267 90.5728 80.5421 91.7329C80.9004 93.662 83.5508 94.9825 85.4008 94.8592C87.1582 94.742 87.0312 92.3499 86.7548 91.1754C86.218 88.8938 83.8278 88.0802 81.7767 87.6509C80.395 87.3617 79.5947 87.3984 79.2279 88.8655C78.9029 90.1657 79.1731 91.367 80.4625 92.0117C81.9039 92.7324 83.9673 93.1666 85.58 93.1666C85.8442 93.1666 85.0576 93.2538 84.8034 93.3259C83.8355 93.6004 82.6786 94.0047 81.936 94.7198C81.6598 94.9858 84.8138 94.8533 85.122 94.7995C86.0903 94.6302 86.9862 94.2954 87.8898 93.9233C87.9665 93.8917 89.3841 93.4653 88.3876 93.545C86.1734 93.7221 83.6017 94.1674 81.7767 95.5163C80.5193 96.4457 83.9511 95.7317 84.2458 95.6358C85.0976 95.3585 85.9125 94.9827 86.7548 94.68C87.3122 94.4797 87.5463 94.4028 86.9938 94.8592C86.5612 95.2166 84.3125 96.95 86.0778 96.95C87.4899 96.95 89.158 96.3539 90.2793 95.4964C90.8558 95.0556 91.4252 93.7146 92.2108 93.6844C92.7827 93.6624 92.7454 94.3105 93.087 94.5207C93.8372 94.9823 95.697 93.7082 96.1535 93.1866C97.068 92.1413 93.7361 92.4376 93.3657 92.4498C92.2691 92.4859 91.2465 92.6778 90.1997 93.0073C89.7999 93.1332 88.1351 93.517 87.9097 94.0428C87.7489 94.4181 91.1759 93.5125 91.4741 93.3458C92.0352 93.0323 92.9097 92.4989 92.5692 91.7329C92.1784 90.8535 92.8653 90.4875 92.9476 89.5824C93.0493 88.4631 92.2802 87.9255 91.3347 87.7106C90.1235 87.4354 89.009 86.9189 87.8699 86.4362C86.4243 85.8237 86.3976 86.3695 86.9739 87.8102C87.0048 87.8876 88.6794 90.8002 88.985 89.7815C89.221 88.9948 87.9849 87.4729 87.8301 86.5955C87.6911 85.8082 89.2897 87.9937 89.4629 88.1885C90.1344 88.9439 90.7966 89.6976 91.4143 90.4984C91.7944 90.991 92.2566 91.9151 92.848 92.2108C93.0258 92.2997 93.0073 90.2011 93.0073 89.9806C93.0073 89.5033 93.0632 88.982 93.0073 88.5071C92.9315 87.8623 91.9143 88.3558 91.5736 88.4275C90.1644 88.7241 88.5687 88.3709 87.2924 87.7704C85.8678 87.0999 85.3568 86.3868 84.7636 85.0025C84.5346 84.4682 84.1785 84.2193 84.0268 83.6883C83.9612 83.4588 82.4852 82.0826 82.2546 82.0555C81.5665 81.9745 79.4422 79.9457 80.5421 79.9049C82.6635 79.8264 84.1486 79.9904 85.8588 81.3586C87.9434 83.0263 90.5229 83.6818 92.629 85.2614C93.2354 85.7162 93.5343 86.0497 93.7043 86.8146C93.7288 86.9249 93.5534 86.6458 93.4852 86.5557C92.7581 85.5948 92.0092 84.6783 91.3745 83.6485C89.9465 81.3313 89.2249 80.0265 86.6752 79.0288C84.0793 78.013 81.6335 76.8432 78.8695 76.3406C78.2205 76.2226 77.5711 76.485 77.1172 76.9579C76.2596 77.8512 79.5489 78.2175 79.9049 78.292C81.3406 78.5925 84.3049 79.065 85.0423 80.6218C85.608 81.816 75.0157 82.455 74.4489 82.4936C72.7316 82.6104 71.0584 82.9756 69.3513 83.1308C68.7333 83.1869 68.1063 83.7533 67.5592 84.0268C66.5104 84.5512 65.5475 84.7559 64.413 85.0025C63.1585 85.2753 62.1006 86.0383 60.9284 86.5159C59.0352 87.2872 57.0167 87.0734 55.0144 87.0734C48.3991 87.0734 68.2319 87.7903 74.8472 87.7903C83.5423 87.7903 40.0668 87.7903 48.7619 87.7903C58.2535 87.7903 67.7451 87.7903 77.2367 87.7903" stroke="#FED1D1" stroke-width="3" stroke-linecap="round"/>
<path d="M70.7109 87.3656C70.7939 88.2869 70.8857 89.0598 71.338 89.8741C71.5457 90.2478 71.7238 90.5832 71.8948 90.9759C72.2148 91.7106 72.7316 92.3982 73.1842 93.0565C73.6115 93.6779 74.2408 94.0115 74.9248 94.3224C76.1139 94.8629 77.3451 95.3113 78.5175 95.8872C80.8325 97.0244 83.5032 96.9656 86.0135 96.9656C87.1311 96.9656 88.2525 96.9811 89.3424 96.696C90.0901 96.5005 90.7506 96.3819 91.2823 95.7817C91.6904 95.3212 92.1036 94.6461 92.1263 94.0118C92.1504 93.3358 92.0326 92.8264 91.6222 92.2653C91.1471 91.6156 90.5633 90.9817 89.8757 90.5539C89.2155 90.1431 88.7175 90.9551 88.9673 91.5795C89.4175 92.7051 90.9761 93.3638 92.1321 93.2674C92.662 93.2233 93.1483 92.8518 93.4508 92.4294C93.7967 91.9465 93.7546 91.3393 93.8962 90.7883C93.9739 90.4864 94.3655 90.1289 94.6581 90.0264C94.8972 89.9428 95.1553 90.5196 95.2735 90.6477C95.4019 90.7867 95.1806 90.0996 95.1798 90.0968C95.0479 89.6847 94.9153 89.2774 94.8222 88.8543C94.6545 88.0917 94.4217 87.2535 94.0193 86.5744C93.6345 85.9251 93.1915 85.2001 92.6772 84.6462C92.2462 84.1821 91.8999 83.6172 91.3292 83.2982C91.1026 83.1716 91.0519 82.9371 90.8545 82.7766C90.5695 82.5451 90.4458 82.2599 90.2215 81.9796C89.7526 81.3934 89.3173 80.8592 88.7094 80.4089C88.4145 80.1904 88.1652 79.9233 87.9065 79.6645C87.5711 79.3292 87.2127 79.0728 86.8281 78.7972C86.2959 78.4158 85.7007 77.9628 85.0582 77.7891C84.8376 77.7295 84.6078 77.6602 84.3783 77.6602C84.0715 77.6602 84.7999 77.7998 84.8765 77.8301C85.7653 78.182 86.6793 78.5065 87.59 78.7972C88.1296 78.9693 88.7507 79.0723 89.2252 79.4008C89.4833 79.5795 89.7012 79.8034 89.9578 79.981C90.2669 80.195 90.6291 80.3623 90.9072 80.614C91.3574 81.0213 91.8979 81.2415 92.3373 81.6689C92.6196 81.9436 92.9458 82.1598 93.2164 82.4484C93.7907 83.061 94.3315 83.6858 94.7636 84.4059C94.9382 84.6969 95.167 84.948 95.3497 85.2323C95.5035 85.4715 95.6084 85.791 95.7131 86.0528C95.8591 86.4179 95.9628 86.8005 96.1351 87.1546C96.2775 87.4475 96.4027 87.7038 96.475 88.022C96.6107 88.619 96.8618 89.1825 96.9556 89.792C97.0416 90.3512 96.979 90.962 96.979 91.5268C96.979 91.7941 96.672 92.1133 96.5336 92.3239C96.1614 92.8902 95.6598 93.3862 95.2325 93.9121C94.7282 94.5328 94.1292 95.5312 93.2867 95.6997" stroke="#FED1D1" stroke-width="3" stroke-linecap="round"/>
<path d="M28.8097 84.9648C26.6501 85.8598 24.1096 86.6209 22.3857 88.3081C21.6543 89.024 21.0377 89.8982 20.4515 90.7324C19.7626 91.7128 19.0424 92.7345 19.0424 93.9795C19.0424 94.8 18.9446 95.6762 19.4362 96.3863C19.9507 97.1293 20.4991 97.8125 21.0554 98.513C21.8726 99.5421 23.6093 99.7695 24.81 100.01C25.8513 100.218 27.1071 100.155 28.162 100.071C29.5076 99.9632 30.2607 98.8155 30.4726 97.5678C30.5819 96.9243 30.5426 96.2567 30.5426 95.6073C30.5426 94.808 30.5766 94.0007 30.4376 93.2093C30.3114 92.4909 30.0289 91.8374 29.8249 91.1438C29.7244 90.802 29.6797 90.4856 29.5186 90.1636C29.0946 89.3154 28.9672 88.5897 28.9672 87.643C28.9672 87.4208 29.2258 86.5658 28.9935 86.4702C28.0265 86.072 26.4265 87.063 25.6064 87.4504C24.2958 88.0696 22.9969 89.0409 22.2719 90.3299C21.6817 91.3791 20.4486 92.0386 19.7076 92.9992C19.5191 93.2435 19.1999 93.5434 19.1999 93.8657C19.1999 94.1662 19.1999 94.4667 19.1999 94.7671C19.1999 95.3699 19.0424 95.9333 19.0424 96.5438C19.0424 97.0032 18.8909 97.7784 19.0774 98.1979C19.6969 99.5917 21.5661 99.827 22.8233 100.316C23.8703 100.723 25.0106 100.694 26.0966 100.911C26.4329 100.978 26.6939 101.048 27.0418 101.034C27.1859 101.028 27.2706 100.973 27.1293 100.841C26.6496 100.394 25.9253 100.149 25.3526 99.8521C24.4735 99.3956 23.6868 98.8632 22.8933 98.2767C22.5876 98.0507 22.255 97.848 21.8868 97.7428C21.7248 97.6966 21.1207 97.4882 20.9679 97.6028C20.7742 97.7481 20.913 99.3122 20.9504 99.5458C21.1114 100.552 22.1947 100.825 22.9808 101.156C23.2801 101.282 23.677 101.304 23.9961 101.384C24.4912 101.507 24.987 101.762 25.4927 101.813C26.6695 101.93 27.7813 102.294 28.9672 102.294C30.0919 102.294 31.2213 102.325 32.3455 102.294C33.1138 102.273 33.8892 102.077 34.6386 101.97C35.3245 101.872 36.0642 101.769 36.7216 101.541C37.2344 101.364 37.6887 101.096 38.1831 100.876C38.3806 100.788 38.7035 100.68 38.8571 100.526C39.1141 100.269 39.404 100.158 39.6797 99.9221C40.1446 99.5237 40.5859 99.0683 41.0276 98.6443C41.776 97.9258 42.2899 96.923 42.918 96.0975C43.5393 95.2809 43.4606 94.207 43.4606 93.2355C43.4606 92.2655 43.4876 91.2908 43.4606 90.3211C43.4435 89.7028 42.988 89.1909 42.988 88.5882" stroke="#FED1D1" stroke-width="3" stroke-linecap="round"/>
<path d="M96.3633 74.3897C97.1015 72.9013 97.8008 71.5438 98.9943 70.3683C100.015 69.3629 101.138 68.4735 102.235 67.5555C103.87 66.1874 105.574 65.3359 107.529 64.5288C109.787 63.5966 112.066 62.6524 114.534 62.486C116.077 62.382 117.642 62.4539 119.187 62.4539C120.3 62.4539 121.434 62.393 122.545 62.4753C123.966 62.5806 125.513 63.151 126.78 63.8015C127.42 64.1297 127.695 65.0855 127.732 65.748C127.822 67.3671 127.472 69.1016 126.545 70.4539C125.323 72.2361 123.18 73.0181 121.411 74.1116C120.797 74.4914 119.023 75.7049 119.689 75.4271C121.42 74.706 123.42 74.4502 125.24 74.0047C126.179 73.7749 127.12 73.5531 128.085 73.4699C128.826 73.406 129.577 73.4773 130.31 73.3309C131.455 73.1017 131.995 73.7006 132.823 74.4752C133.569 75.1727 134.269 75.9059 134.288 76.9779C134.311 78.2262 134.337 79.4215 133.689 80.5394C133.002 81.7264 131.73 82.8374 130.481 83.395C129.094 84.0136 127.66 84.109 126.203 84.4003" stroke="white" stroke-width="3" stroke-linecap="round"/>
</svg>
