<svg width="102" height="94" viewBox="0 0 102 94" fill="none" xmlns="http://www.w3.org/2000/svg">
<path d="M53.0821 40.0402C48.1361 39.0327 43.1897 37.9912 38.148 37.592C36.2233 37.4396 34.3744 37.466 32.7878 38.7059C29.8499 41.0017 26.3639 44.9198 25.7527 48.7033C25.1658 52.3364 27.712 55.7324 30.142 58.1654C34.1953 62.224 38.762 64.9166 44.3742 66.1997C49.714 67.4204 56.1852 68.4913 61.6991 68.0317C65.1859 67.7411 68.6486 65.8591 70.8044 63.148C71.554 62.2052 72.6709 61.3951 73.1938 60.3012C73.7759 59.0838 73.6957 57.589 73.7873 56.2729C73.956 53.8488 74.4307 51.2023 73.5208 48.8586C72.7385 46.844 70.3028 43.8709 68.5614 42.5264C66.6478 41.0488 63.7564 40.7924 61.5424 39.9248C57.8793 38.4892 54.6262 38.0346 50.7362 37.7639C49.0272 37.6449 47.6049 36.8877 45.9561 36.7268C43.5507 36.4921 41.1241 36.3905 38.7129 36.2226C37.4997 36.1382 36.0805 35.8343 34.8857 36.1127C34.4013 36.2257 33.1133 36.3605 32.9125 36.9145C32.6383 37.6707 32.8113 37.5806 32.1021 37.8755" stroke="#C4C9E7" stroke-width="50" stroke-linecap="round"/>
<path d="M32.6029 10.44C28.9028 10.8602 26.2025 11.3181 25.9283 15.2581C25.8168 16.8597 25.5204 17.5163 27.174 18.1622C29.1162 18.9209 31.3601 18.8058 33.4193 18.9491C34.9386 19.0549 35.1342 18.2881 35.6685 16.9926" stroke="#C4C9E7" stroke-width="20" stroke-linecap="round"/>
<path d="M91.1577 29.3079C89.0978 29.8915 88.2803 30.1691 88.1343 32.2671C88.0411 33.6058 88.6034 35.2262 90.3807 34.8496C91.1675 34.6828 90.9715 31.9833 91.0113 31.4108C91.1369 29.6073 91.7815 27.8827 89.9022 27.1075" stroke="#C4C9E7" stroke-width="20" stroke-linecap="round"/>
<path d="M36.7571 51.933C35.5692 55.1543 38.7021 54.3478 38.8844 51.7289C39.0481 49.3766 37.47 49.8695 35.5016 49.7325" stroke="#47361B" stroke-width="5" stroke-linecap="round"/>
<path d="M56.8887 56.1527C57.6786 58.807 59.4939 59.2016 59.6925 56.3479" stroke="#47361B" stroke-width="5" stroke-linecap="round"/>
<path d="M43.0366 62.9358L47.2424 63.2285" stroke="#47361B" stroke-width="5" stroke-linecap="round"/>
<path d="M39.5964 71.8532C44.0951 72.8832 49.7488 74.0551 54.3166 72.8778" stroke="#47361B" stroke-width="3" stroke-linecap="round"/>
</svg>
