<svg width="100" height="92" viewBox="0 0 100 92" fill="none" xmlns="http://www.w3.org/2000/svg">
<path d="M51.822 39.1067C46.818 38.445 41.8112 37.7496 36.754 37.7014C34.8234 37.683 32.9807 37.8377 31.484 39.1848C28.7126 41.6791 25.5071 45.8298 25.1601 49.6466C24.8269 53.3116 27.6028 56.5226 30.1958 58.7811C34.5212 62.5484 39.2639 64.9174 44.9516 65.8077C50.3632 66.6547 56.8933 67.2736 62.3619 66.4323C65.8201 65.9002 69.1437 63.7824 71.1061 60.9281C71.7885 59.9355 72.8463 59.0498 73.2921 57.9223C73.7882 56.6674 73.6044 55.1817 73.6044 53.8625C73.6044 51.4325 73.8942 48.7594 72.8237 46.4846C71.9034 44.5291 69.2671 41.7323 67.4366 40.512C65.425 39.1709 62.5228 39.1159 60.2539 38.4041C56.5 37.2263 53.2231 36.9987 49.3237 36.9987C47.6105 36.9987 46.1391 36.3421 44.4832 36.2961C42.0673 36.229 39.6395 36.2961 37.2224 36.2961C36.0063 36.2961 34.5694 36.0915 33.3968 36.4522C32.9214 36.5985 31.6459 36.8225 31.484 37.3891C31.2631 38.1625 31.4294 38.0605 30.7423 38.4041" stroke="#FADBC7" stroke-width="50" stroke-linecap="round"/>
<path d="M29.3369 11C25.6749 11.6761 23.013 12.3204 23.013 16.2699C23.013 17.8754 22.7629 18.551 24.4573 19.0806C26.4476 19.7025 28.6781 19.4319 30.7422 19.4319C32.2653 19.4319 32.4071 18.6533 32.8502 17.3239" stroke="#FADBC7" stroke-width="20" stroke-linecap="round"/>
<path d="M89.0606 25.7564C87.0462 26.4816 86.25 26.8153 86.25 28.9184C86.25 30.2603 86.9234 31.8377 88.6703 31.3386C89.4436 31.1177 89.0606 28.4382 89.0606 27.8644C89.0606 26.0565 89.5839 24.2913 87.6553 23.6484" stroke="#FADBC7" stroke-width="20" stroke-linecap="round"/>
<path d="M36.3623 52.1043C35.401 55.4004 38.4703 54.3782 38.4703 51.753C38.4703 49.395 36.9302 49.9963 34.957 49.9963" stroke="#47361B" stroke-width="5" stroke-linecap="round"/>
<path d="M56.7383 54.916C57.7106 57.509 59.5489 57.7766 59.5489 54.916" stroke="#47361B" stroke-width="5" stroke-linecap="round"/>
<path d="M43.3906 62.6445H47.6066" stroke="#47361B" stroke-width="5" stroke-linecap="round"/>
<path d="M40.5781 71.7793C45.1374 72.4945 50.8589 73.271 55.3339 71.7793" stroke="#47361B" stroke-width="3" stroke-linecap="round"/>
</svg>
