<svg width="122" height="122" viewBox="0 0 122 122" fill="none" xmlns="http://www.w3.org/2000/svg">
<path d="M78.6264 42.2724C78.5865 42.4213 78.6212 42.5901 78.6559 42.7589C78.7153 43.1337 78.919 43.268 79.267 43.1619C80.3112 42.8435 93.3573 40.6769 95.1397 40.4367C96.5467 40.2554 97.981 40.1213 99.4153 39.9873C100.315 39.9094 101.183 40.1019 101.953 40.5077C102.343 40.692 102.688 40.7446 103.074 40.6485C105.393 40.1933 107.747 39.9069 110.113 40.0226C110.862 40.0635 111.664 40.1989 112.151 40.768C112.804 41.4614 113.543 41.5396 114.412 41.5733C116.041 41.6107 117.656 41.8442 119.279 42.1993C120.78 42.5617 121.574 43.7715 121.544 45.0791C121.538 45.9948 120.966 46.639 120.414 47.2088C119.148 48.5045 117.67 49.5443 116.094 50.358C115.348 50.7562 114.92 51.1599 114.813 52.0084C114.715 52.8197 114.054 53.2007 113.402 53.5446C111.749 54.4971 110.003 55.3454 108.168 55.9304C107.688 56.081 107.179 56.3431 106.682 56.4093C106.428 56.461 106.294 56.6642 106.196 56.8775C105.83 58.0953 104.95 58.6968 103.774 59.0596C102.852 59.3707 101.991 59.8978 101.049 60.2833C99.0324 61.0988 86.024 66.107 85.3378 66.282C85.1688 66.3164 85.0543 66.4453 84.9499 66.5369C84.731 66.7574 84.7284 66.9162 84.9867 67.145C86.1965 68.147 96.1973 80.4768 97.3048 82.0098C97.5978 82.4073 97.8909 82.8048 98.2311 83.1751C98.7452 83.7914 98.864 84.541 98.8137 85.3251C98.7686 85.7915 98.9126 86.1491 99.2255 86.4722C100.634 87.9262 101.711 89.5708 102.769 91.2897C103.134 91.866 103.556 92.3779 103.732 93.0631C103.918 93.7111 103.945 94.3563 103.654 94.996C103.507 95.3953 103.539 95.7229 103.757 96.1005C104.77 97.6878 105.557 99.3741 105.939 101.231C106.077 101.906 106.328 102.611 106.091 103.345C105.765 104.414 104.511 105.514 103.179 105.117C101.447 104.573 99.7224 104.151 98.1273 103.245C97.6353 102.994 97.1334 102.779 96.6787 102.538C96.4004 102.384 96.1195 102.388 95.8087 102.504C94.9236 102.825 94.1308 102.653 93.3532 102.125C92.3346 101.454 91.2388 100.921 90.2774 100.185C89.3433 99.4957 88.3892 98.8812 87.5123 98.1279C86.9957 97.6704 86.4166 97.595 85.7703 97.6212C85.3303 97.6229 84.9775 97.4486 84.6346 97.2371C82.3863 95.6378 69.2993 85.4319 68.0175 84.251C67.5281 83.8408 67.2746 83.8925 67.1151 84.4877C66.8732 85.5395 60.2064 103.412 59.838 104.191C59.5367 104.868 59.0517 105.336 58.4574 105.615C57.7786 105.912 57.5545 106.45 57.4522 106.981C57.3075 107.819 56.9217 108.514 56.6378 109.275C56.2169 110.398 55.6569 111.445 55.1242 112.538C55.1043 112.612 55.0471 112.677 55.0271 112.751C54.6955 114.138 53.6934 114.747 52.3982 114.958C51.7792 115.031 51.5031 115.316 51.2418 115.844C50.348 117.838 48.9349 119.533 47.2189 120.867C45.948 121.883 43.955 121.269 43.372 119.717C42.8063 118.25 42.616 116.723 42.4729 115.169C42.3841 114.308 42.2579 113.437 42.3008 112.531C42.3333 112.261 42.1595 112.015 41.9658 111.843C41.0988 111.053 40.8908 110.04 40.9363 108.976C41.0043 107.678 40.9878 106.397 41.205 105.14C41.3524 104.142 41.3879 103.115 41.6198 102.101C41.6722 101.756 41.7147 101.448 41.5508 101.165C40.9375 100.323 40.9804 99.4171 41.0706 98.4842C41.1984 96.9633 43.4648 80.304 43.7942 78.4782C43.8891 77.8257 43.6681 77.607 43.0291 77.7548C41.7786 78.0976 25.973 80.7213 24.0689 80.9687C23.2908 81.0394 22.5401 81.1572 21.7646 81.0691C21.2228 81.0036 20.7009 80.8638 20.2289 80.5379C19.886 80.3264 19.5306 80.311 19.1925 80.3799C16.8904 80.9195 14.5562 81.1314 12.2173 81.063C11.2256 81.0365 10.2464 80.814 9.53854 80.0262C9.01448 79.4471 8.31099 79.5378 7.64736 79.4796C6.05918 79.2933 4.41118 79.3302 2.87543 78.7991C2.13986 78.5621 1.40428 78.3251 0.910131 77.6345C0.204888 76.6878 0.230879 75.0997 1.08651 74.2922C2.29541 73.061 3.59621 71.9341 5.09812 71.1003C5.56062 70.8654 5.93122 70.526 6.42103 70.3383C6.86359 70.1777 7.08508 69.7984 7.20471 69.352C7.31437 68.9427 7.35944 68.4763 7.65549 68.1169C8.08591 67.5544 8.71745 67.285 9.28441 66.9583C10.8808 66.0702 12.6237 65.3808 14.3567 64.7286C14.5357 64.6569 14.7147 64.5853 14.8838 64.5508C15.6245 64.4702 16.1369 64.0492 16.3636 63.3523C16.5803 62.6925 17.0827 62.3088 17.7142 62.0393C19.7033 61.1766 34.6835 55.2214 36.0385 54.787C36.3393 54.7081 36.6128 54.582 36.9136 54.5031C37.6098 54.2908 37.7493 53.77 37.2327 53.3125C36.2639 52.4548 24.9518 38.4577 24.4551 37.9258C23.7845 37.148 23.4248 36.254 23.5821 35.2195C23.6246 34.9119 23.498 34.6387 23.2769 34.42C21.8712 32.8072 20.4183 31.2215 19.4104 29.3166L19.3831 29.2694C18.3723 28.1212 18.2613 26.8952 18.7893 25.5214C18.9063 25.2337 18.817 24.9705 18.6432 24.7246C18.0996 23.622 17.4988 22.5837 17.077 21.4738C16.7372 20.5055 16.4819 19.5199 16.3956 18.4999C16.2578 16.6286 17.5885 15.3901 19.6214 15.8551C21.5797 16.3 23.4011 17.1071 25.1553 18.0158C25.7119 18.3244 26.2238 18.5015 26.8827 18.2792C27.5042 18.047 28.1007 18.2068 28.6945 18.5255C30.6524 19.5685 32.476 20.8148 34.2423 22.1255C34.6398 22.4313 34.9328 22.8289 35.3975 23.0331C35.6485 23.1403 35.8622 23.2374 36.1058 23.2229C36.8466 23.1423 37.4976 23.3965 38.0988 23.8367C39.4677 24.8415 52.309 34.6226 53.3225 35.6119C53.7373 36.0022 54.1621 36.3553 54.5869 36.7084C54.8452 36.9371 55.0515 36.9126 55.2804 36.6549C55.452 36.4617 55.5118 36.2384 55.5816 35.978C55.8309 35.0479 59.8502 24.5209 60.2511 23.4719C60.652 22.4229 60.9784 21.3539 61.4067 20.3521C61.8848 19.1643 62.4274 18.0337 62.9428 16.8558C63.2141 16.2905 63.6246 15.8024 64.1816 15.513C64.8803 15.1419 65.1343 14.4922 65.3511 13.8325C65.807 12.2799 66.4667 10.8616 67.211 9.42604C67.4325 9.04675 67.5894 8.61027 67.7836 8.18379C68.1945 7.09759 69.0648 6.53328 70.1337 6.42092C70.7154 6.33753 71.0661 6.0726 71.2802 5.5717C72.1367 3.56811 73.5944 2.00477 75.2459 0.612953C76.385 -0.357872 78.3806 0.0971038 78.9935 1.53738C79.4253 2.6101 79.6507 3.70729 79.7816 4.8589C79.9298 6.09492 80.0309 7.35816 80.0946 8.6114C80.1093 8.85461 80.2186 9.04339 80.375 9.20495C81.284 10.2859 81.564 11.4775 81.4288 12.8768C81.3261 14.0057 81.2507 15.1818 81.148 16.3107C81.0478 17.2808 80.8732 18.2309 80.783 19.1638C80.7405 19.4714 80.7826 19.7618 80.9564 20.0078C81.386 20.6413 81.4401 21.3337 81.4471 22.0533C81.4012 23.7158 81.1589 25.3656 80.842 26.9954C80.5577 28.3548 78.8661 40.7815 78.6264 42.2724Z" fill="#C4C9E7"/>
</svg>
