<svg width="48" height="49" viewBox="0 0 48 49" fill="none" xmlns="http://www.w3.org/2000/svg">
<path d="M32.9848 35.3824C35.5306 36.1884 37.978 36.7067 40.0785 36.8715C45.242 37.2696 47.0857 35.3887 47.7254 33.7382C48.8106 30.9235 46.833 26.7085 38.5269 22.7669C45.2566 16.8409 45.8353 12.2865 43.9115 9.87179C41.9839 7.45243 37.3083 6.87343 29.7397 11.7741C29.2283 9.43581 28.5326 7.29492 27.7117 5.55322C25.5321 0.911248 22.9254 0.165669 21.1341 0.361425C19.3346 0.556064 17.0079 1.83096 16.1243 6.80487C15.7676 8.82876 15.671 11.2793 15.8451 13.8873C13.2956 13.0766 10.8401 12.5573 8.73519 12.396C3.57158 11.9978 1.72766 13.8786 1.08828 15.5294C0.448867 17.1801 0.545111 19.818 4.61966 23.0262C6.14772 24.2328 8.10812 25.4167 10.3014 26.4824C3.55879 32.4104 2.97573 36.9686 4.9031 39.388C6.83064 41.8069 11.5061 42.3862 19.0703 37.4889C19.5817 39.8271 20.2774 41.9678 21.0982 43.7096C23.2779 48.3516 25.88 49.1008 27.6795 48.9062C30.818 48.5681 33.6935 44.7903 32.9848 35.3824Z" fill="#F3D3C8"/>
</svg>
