<svg width="29" height="33" viewBox="0 0 29 33" fill="none" xmlns="http://www.w3.org/2000/svg">
<path d="M17.3378 10.4702C17.3378 10.5102 17.3578 10.5502 17.3778 10.5902C17.4178 10.6802 17.4778 10.7002 17.5578 10.6502C17.7978 10.5002 20.9178 9.08023 21.3478 8.90023C21.6878 8.76023 22.0378 8.63023 22.3878 8.50023C22.6078 8.42023 22.8378 8.41023 23.0578 8.46023C23.1678 8.48024 23.2578 8.47023 23.3478 8.42023C23.8978 8.15023 24.4678 7.92023 25.0678 7.79023C25.2578 7.75023 25.4678 7.73023 25.6278 7.84023C25.8378 7.97023 26.0278 7.94023 26.2478 7.89023C26.6578 7.79023 27.0778 7.74023 27.5078 7.72023C27.9078 7.71023 28.1878 7.96023 28.2678 8.29023C28.3278 8.52023 28.2278 8.72023 28.1278 8.90023C27.8978 9.31023 27.5978 9.67023 27.2578 9.98023C27.0978 10.1302 27.0178 10.2602 27.0478 10.4802C27.0778 10.6902 26.9378 10.8302 26.7978 10.9602C26.4478 11.3102 26.0678 11.6402 25.6478 11.9102C25.5378 11.9802 25.4278 12.0802 25.3078 12.1302C25.2478 12.1602 25.2278 12.2202 25.2178 12.2802C25.2078 12.6102 25.0278 12.8202 24.7578 12.9902C24.5478 13.1302 24.3678 13.3202 24.1578 13.4802C23.7078 13.8202 20.7878 15.9502 20.6278 16.0402C20.5878 16.0602 20.5678 16.1002 20.5478 16.1302C20.5078 16.2002 20.5178 16.2402 20.5978 16.2802C20.9678 16.4502 24.2978 18.8702 24.6778 19.1802C24.7778 19.2602 24.8778 19.3402 24.9878 19.4102C25.1578 19.5302 25.2378 19.7102 25.2778 19.9102C25.2978 20.0302 25.3578 20.1102 25.4578 20.1702C25.9078 20.4402 26.2878 20.7802 26.6678 21.1402C26.7978 21.2602 26.9378 21.3602 27.0278 21.5202C27.1178 21.6702 27.1678 21.8302 27.1378 22.0102C27.1278 22.1202 27.1578 22.2002 27.2378 22.2802C27.5978 22.6102 27.9078 22.9802 28.1278 23.4202C28.2078 23.5802 28.3178 23.7402 28.3078 23.9402C28.2978 24.2302 28.0578 24.5902 27.6978 24.5802C27.2278 24.5602 26.7678 24.5702 26.3078 24.4502C26.1678 24.4202 26.0278 24.4002 25.8978 24.3702C25.8178 24.3502 25.7478 24.3702 25.6778 24.4202C25.4778 24.5602 25.2678 24.5702 25.0378 24.4902C24.7378 24.3902 24.4278 24.3302 24.1378 24.2102C23.8578 24.1002 23.5778 24.0102 23.3078 23.8802C23.1478 23.8002 22.9978 23.8202 22.8378 23.8702C22.7278 23.9002 22.6278 23.8802 22.5278 23.8502C21.8578 23.6002 17.8978 21.9202 17.4978 21.7102C17.3478 21.6402 17.2878 21.6702 17.2878 21.8302C17.2978 22.1102 16.8278 27.0402 16.7878 27.2602C16.7578 27.4502 16.6678 27.6002 16.5378 27.7102C16.3878 27.8302 16.3678 27.9802 16.3778 28.1202C16.3978 28.3402 16.3478 28.5402 16.3278 28.7502C16.2978 29.0602 16.2278 29.3602 16.1678 29.6702C16.1678 29.6902 16.1578 29.7102 16.1578 29.7302C16.1678 30.1002 15.9578 30.3202 15.6478 30.4602C15.4978 30.5202 15.4478 30.6102 15.4178 30.7602C15.3278 31.3202 15.0878 31.8402 14.7478 32.2902C14.4978 32.6302 13.9578 32.6102 13.7078 32.2602C13.4678 31.9302 13.3178 31.5602 13.1778 31.1802C13.0978 30.9702 13.0078 30.7602 12.9578 30.5302C12.9478 30.4602 12.8878 30.4102 12.8278 30.3802C12.5578 30.2402 12.4378 30.0002 12.3778 29.7302C12.3078 29.4002 12.2178 29.0802 12.1878 28.7502C12.1578 28.4902 12.0978 28.2302 12.0878 27.9602C12.0778 27.8702 12.0678 27.7902 12.0078 27.7302C11.7978 27.5602 11.7478 27.3302 11.7078 27.0902C11.6378 26.7002 11.0878 22.3702 11.0478 21.8902C11.0278 21.7202 10.9578 21.6802 10.8078 21.7602C10.5178 21.9302 6.73778 23.6502 6.27778 23.8402C6.08778 23.9102 5.90778 23.9902 5.70778 24.0202C5.56778 24.0402 5.42778 24.0402 5.28778 23.9902C5.18778 23.9602 5.09778 23.9802 5.01778 24.0202C4.47778 24.3102 3.90778 24.5202 3.31778 24.6602C3.06778 24.7202 2.80778 24.7302 2.57778 24.5802C2.40778 24.4702 2.23778 24.5402 2.06778 24.5702C1.65778 24.6302 1.24778 24.7502 0.827778 24.7202C0.627778 24.7102 0.427778 24.7002 0.257778 24.5602C0.017778 24.3702 -0.0822223 23.9702 0.0777777 23.7102C0.297778 23.3202 0.547779 22.9502 0.867779 22.6402C0.967779 22.5502 1.03778 22.4402 1.14778 22.3602C1.24778 22.2902 1.27778 22.1802 1.27778 22.0602C1.27778 21.9502 1.25778 21.8302 1.30778 21.7202C1.37778 21.5502 1.51778 21.4402 1.63778 21.3202C1.97778 20.9902 2.36778 20.7002 2.75778 20.4202C2.79778 20.3902 2.83778 20.3602 2.87778 20.3402C3.05778 20.2702 3.15778 20.1302 3.16778 19.9402C3.17778 19.7602 3.27778 19.6302 3.41778 19.5202C3.85778 19.1702 7.20778 16.6702 7.51778 16.4702C7.58778 16.4302 7.64778 16.3802 7.71778 16.3402C7.87778 16.2402 7.87778 16.1002 7.71778 16.0202C7.41778 15.8702 3.64778 13.1202 3.48778 13.0202C3.26778 12.8702 3.11778 12.6702 3.08778 12.4002C3.07778 12.3202 3.02778 12.2602 2.95778 12.2202C2.49778 11.9102 2.02778 11.6102 1.64778 11.2002L1.63778 11.1902C1.30778 10.9702 1.19778 10.6702 1.23778 10.2902C1.24778 10.2102 1.20778 10.1502 1.14778 10.1002C0.937777 9.86023 0.717777 9.64023 0.537777 9.39023C0.387777 9.17023 0.257778 8.94023 0.167778 8.69023C0.00777785 8.23023 0.257779 7.83023 0.797779 7.81023C1.31778 7.79023 1.82778 7.87023 2.32778 7.98023C2.48778 8.02023 2.62778 8.03023 2.77778 7.93023C2.91778 7.83023 3.07778 7.83023 3.24778 7.87023C3.80778 8.00023 4.34778 8.19023 4.87778 8.40023C4.99778 8.45023 5.09778 8.53023 5.22778 8.55023C5.29778 8.56023 5.35778 8.57023 5.41778 8.55023C5.59778 8.48023 5.77778 8.50023 5.95778 8.57023C6.36778 8.73023 10.2378 10.3202 10.5578 10.5002C10.6878 10.5702 10.8178 10.6302 10.9478 10.6902C11.0278 10.7302 11.0778 10.7102 11.1178 10.6302C11.1478 10.5702 11.1478 10.5102 11.1478 10.4402C11.1478 10.1902 11.4478 7.28023 11.4778 6.99023C11.5078 6.70023 11.5178 6.41023 11.5578 6.13023C11.5978 5.80023 11.6578 5.48023 11.7078 5.15023C11.7378 4.99023 11.8078 4.84023 11.9278 4.73023C12.0778 4.59023 12.0978 4.41023 12.1078 4.23023C12.1178 3.81023 12.1878 3.41023 12.2778 3.00023C12.3078 2.89023 12.3178 2.77023 12.3378 2.65023C12.3678 2.35023 12.5478 2.15023 12.8078 2.05023C12.9478 1.99023 13.0178 1.90023 13.0378 1.76023C13.1178 1.20023 13.3778 0.710234 13.6978 0.250234C13.9178 -0.0697657 14.4478 -0.0897657 14.6978 0.230234C14.8778 0.470234 15.0078 0.730234 15.1178 1.01023C15.2378 1.31023 15.3478 1.62023 15.4478 1.93023C15.4678 1.99023 15.5078 2.03023 15.5578 2.06023C15.8578 2.27023 16.0078 2.55023 16.0678 2.91023C16.1178 3.20023 16.1778 3.50023 16.2278 3.79023C16.2678 4.04023 16.2878 4.29023 16.3278 4.53023C16.3378 4.61023 16.3678 4.68023 16.4278 4.73023C16.5778 4.86023 16.6378 5.03023 16.6878 5.21023C16.7878 5.63023 16.8378 6.06023 16.8678 6.49023C16.8878 6.85023 17.2978 10.0802 17.3378 10.4702Z" fill="#F7BFAE"/>
</svg>
