<svg width="36" height="36" viewBox="0 0 36 36" fill="none" xmlns="http://www.w3.org/2000/svg">
<path d="M18 6C11.3769 6 6 11.369 6 18C6 24.6231 11.369 30 18 30C24.6231 30 30 24.631 30 18C30 11.369 24.631 6 18 6ZM20.9628 12.9445C21.0725 12.7015 21.2293 12.4037 21.5271 12.192C21.8877 11.9334 22.2795 11.9491 22.6166 12.2391C22.9771 12.5447 23.1417 12.9445 23.2671 13.3364C23.5101 14.0888 23.5885 14.8883 23.5101 15.774C23.4631 16.3148 23.3534 17.0281 22.9615 17.6865C22.8831 17.8197 22.7812 17.9451 22.6636 18.0549C22.4677 18.2351 22.2482 18.3214 22.0366 18.3214C21.8014 18.3214 21.5663 18.2195 21.3703 18.0078C21.0568 17.6865 20.9079 17.2946 20.8138 16.9889C20.6336 16.4246 20.5474 15.8289 20.5552 15.1705C20.5552 14.2769 20.6884 13.5715 20.9628 12.9445ZM12.4899 14.5591C12.5526 13.8615 12.6937 13.305 12.9445 12.8112C13.0542 12.5996 13.1796 12.4272 13.3207 12.2939C13.5245 12.1058 13.7675 12.0039 13.9948 12.0196C14.2299 12.0274 14.4494 12.145 14.6453 12.3488C14.9745 12.7015 15.1234 13.1248 15.2332 13.4931C15.3821 14.0105 15.4605 14.5748 15.4526 15.0372C15.4526 15.97 15.3429 16.644 15.0843 17.2711C14.9588 17.5767 14.8178 17.8119 14.6296 18.0078C14.4259 18.2195 14.1986 18.3214 13.9634 18.3214C13.7518 18.3214 13.5402 18.2351 13.3521 18.0627C13.0464 17.7884 12.8896 17.4435 12.7799 17.1378C12.5055 16.3619 12.4115 15.5232 12.4899 14.5591ZM18 26.2299C14.7707 26.2299 11.8158 24.4664 10.2795 21.6212L12.3096 20.5317C13.4383 22.6323 15.6251 23.9334 18 23.9334C20.3828 23.9334 22.5617 22.6323 23.6904 20.5317L25.7204 21.6212C24.192 24.4585 21.2293 26.2299 18 26.2299Z" fill="#E7AACD"/>
</svg>
