<svg width="36" height="36" viewBox="0 0 36 36" fill="none" xmlns="http://www.w3.org/2000/svg">
<path d="M33.9196 16.6261C33.7387 15.9343 33.0955 15.6082 32.9548 15.5489C27.9397 13.3453 24.4121 9.25423 22.7538 7.01107L22.7236 6.97154C22.6834 6.91225 22.6533 6.8826 22.6332 6.85296L22.3216 6.46757C21.8593 5.9636 21.2161 5.8549 20.7136 6.20076C20.4724 6.35887 20.0804 6.74426 20.1407 7.49528V12.2682C17.8794 10.4005 16.201 8.39452 15.1659 6.9913C15.1257 6.93201 15.0854 6.89249 15.0653 6.86284L14.7437 6.46757C14.2814 5.97348 13.6382 5.87466 13.1457 6.21064C12.7437 6.48733 12.5327 6.96166 12.5729 7.5348C12.5729 7.77197 12.5729 9.71868 12.5729 12.2781C10.3116 10.4104 8.64324 8.41428 7.61811 7.03083L7.58796 6.9913C7.54776 6.94189 7.51761 6.90237 7.49751 6.87272L7.18596 6.48733C6.72365 5.98336 6.08043 5.87466 5.57791 6.22052C5.16585 6.49721 4.96484 6.97154 5.00504 7.54468C5.00504 8.59215 5.01509 25.4801 5.00504 26.5078C4.99499 27.4269 5.57793 27.7727 5.74878 27.8518C5.91964 27.9308 6.07038 27.9506 6.15079 27.9605C6.80405 28.0296 7.25629 27.4664 7.38695 27.2885C7.4372 27.2193 7.52767 27.1008 7.62817 26.9624L7.68847 26.8735C7.81912 26.6857 7.96988 26.4683 8.07038 26.3497C9.01511 25.1244 10.5427 23.3654 12.5829 21.6954C12.5829 24.2252 12.5829 26.1719 12.5829 26.5177C12.5729 27.4367 13.1558 27.7826 13.3266 27.8715C13.4975 27.9506 13.6483 27.9704 13.7186 27.9802C14.3819 28.0494 14.8241 27.4861 14.9548 27.3083C15.005 27.2391 15.0955 27.1106 15.206 26.9624L15.2664 26.8834C15.397 26.6956 15.5477 26.4881 15.6482 26.3695C16.593 25.1442 18.1206 23.3852 20.1608 21.7152C20.1608 24.2449 20.1608 26.2015 20.1608 26.5375C20.1508 27.4565 20.7337 27.8024 20.9045 27.8814C21.0754 27.9605 21.2261 27.9802 21.3065 27.9901C21.3467 27.9901 21.3869 28 21.4271 28C22.0302 28 22.4221 27.4861 22.5528 27.3182C22.603 27.249 22.6935 27.1304 22.794 26.9921L22.8543 26.9031C22.995 26.7154 23.1357 26.498 23.2362 26.3794C24.8342 24.324 28.2211 20.5491 32.9246 18.474C32.9548 18.4641 32.9749 18.4542 33.005 18.4344L33.0452 18.4147L33.1055 18.385C33.1357 18.3653 33.1658 18.3554 33.1859 18.3356L33.2261 18.3158C33.2462 18.306 33.2663 18.2961 33.2864 18.2763C33.3166 18.2566 33.3367 18.2368 33.3668 18.217L33.407 18.1874C33.4271 18.1676 33.4472 18.1577 33.4673 18.138C33.4975 18.1182 33.5176 18.0886 33.5477 18.0589L33.5779 18.0293C33.598 18.0095 33.6181 17.9897 33.6382 17.97C33.6684 17.9403 33.6885 17.9107 33.7287 17.8514C33.7488 17.8316 33.7688 17.802 33.7789 17.7822C33.799 17.7427 33.8191 17.7032 33.8593 17.634C33.8694 17.6044 33.8894 17.5846 33.8995 17.5549C33.9196 17.5055 33.9397 17.4462 33.9498 17.387L33.9699 17.298C33.99 17.2091 34 17.1103 34 17.0213C33.9598 16.8533 33.9498 16.7348 33.9196 16.6261Z" fill="#E7AACD"/>
</svg>
