<svg width="28" height="21" viewBox="0 0 28 21" fill="none" xmlns="http://www.w3.org/2000/svg">
<path d="M11.8097 1.96484C9.6501 2.85981 7.10963 3.62087 5.38569 5.30813C4.65428 6.02398 4.03774 6.89816 3.45149 7.73245C2.7626 8.71279 2.04241 9.73447 2.04241 10.9795C2.04241 11.8 1.94464 12.6762 2.43625 13.3863C2.95066 14.1293 3.4991 14.8125 4.05538 15.513C4.87256 16.5421 6.60928 16.7695 7.81001 17.0096C8.85127 17.2179 10.1071 17.1553 11.162 17.0709C12.5076 16.9632 13.2607 15.8155 13.4726 14.5678C13.5819 13.9243 13.5426 13.2567 13.5426 12.6073C13.5426 11.808 13.5766 11.0007 13.4376 10.2093C13.3114 9.49094 13.0289 8.83742 12.8249 8.14379C12.7244 7.80204 12.6797 7.48565 12.5186 7.16356C12.0946 6.31544 11.9672 5.58971 11.9672 4.64297C11.9672 4.42081 12.2258 3.56584 11.9935 3.4702C11.0265 3.072 9.42651 4.063 8.60645 4.45043C7.29582 5.06962 5.99693 6.04094 5.27191 7.32985C4.68172 8.37909 3.44859 9.03864 2.70756 9.99923C2.51909 10.2435 2.19994 10.5434 2.19994 10.8657C2.19994 11.1662 2.19994 11.4667 2.19994 11.7671C2.19994 12.3699 2.04241 12.9333 2.04241 13.5438C2.04241 14.0032 1.89094 14.7784 2.07742 15.1979C2.69688 16.5917 4.56611 16.827 5.82329 17.3159C6.8703 17.7231 8.01059 17.6939 9.09656 17.9111C9.43289 17.9784 9.69393 18.0475 10.0418 18.0336C10.1859 18.0278 10.2706 17.9726 10.1293 17.8411C9.6496 17.3944 8.92532 17.1494 8.35264 16.8521C7.47348 16.3956 6.68675 15.8632 5.89331 15.2767C5.58757 15.0507 5.25499 14.848 4.88682 14.7428C4.72485 14.6966 4.1207 14.4882 3.96786 14.6028C3.77419 14.7481 3.91298 16.3122 3.95035 16.5458C4.11142 17.5525 5.1947 17.8251 5.98083 18.1561C6.28005 18.2821 6.67696 18.3039 6.99607 18.3837C7.49124 18.5075 7.98701 18.762 8.49267 18.8125C9.66955 18.9302 10.7813 19.2939 11.9672 19.2939C13.0919 19.2939 14.2213 19.3251 15.3455 19.2939C16.1138 19.2726 16.8892 19.0771 17.6386 18.9701C18.3245 18.8721 19.0642 18.7688 19.7216 18.5412C20.2344 18.3637 20.6887 18.0958 21.1831 17.8761C21.3806 17.7883 21.7035 17.6796 21.8571 17.526C22.1141 17.2689 22.404 17.1585 22.6797 16.9221C23.1446 16.5237 23.5859 16.0683 24.0276 15.6443C24.776 14.9258 25.2899 13.923 25.918 13.0975C26.5393 12.2809 26.4606 11.207 26.4606 10.2355C26.4606 9.26546 26.4876 8.29082 26.4606 7.3211C26.4435 6.70284 25.988 6.19087 25.988 5.58819" stroke="#FED1D1" stroke-width="3" stroke-linecap="round"/>
</svg>
