<svg width="30" height="23" viewBox="0 0 30 23" fill="none" xmlns="http://www.w3.org/2000/svg">
<path d="M1.71094 11.3656C1.79385 12.2869 1.88569 13.0598 2.33804 13.8741C2.5457 14.2478 2.72381 14.5832 2.89482 14.9759C3.21476 15.7106 3.73163 16.3982 4.18419 17.0565C4.61146 17.6779 5.2408 18.0115 5.92485 18.3224C7.11392 18.8629 8.34511 19.3113 9.51751 19.8872C11.8325 21.0244 14.5032 20.9656 17.0135 20.9656C18.1311 20.9656 19.2525 20.9811 20.3424 20.696C21.0901 20.5005 21.7506 20.3819 22.2823 19.7817C22.6904 19.3212 23.1036 18.6461 23.1263 18.0118C23.1504 17.3358 23.0326 16.8264 22.6222 16.2653C22.1471 15.6156 21.5633 14.9817 20.8757 14.5539C20.2155 14.1431 19.7175 14.9551 19.9673 15.5795C20.4175 16.7051 21.9761 17.3638 23.1321 17.2674C23.662 17.2233 24.1483 16.8518 24.4508 16.4294C24.7967 15.9465 24.7546 15.3393 24.8962 14.7883C24.9739 14.4864 25.3655 14.1289 25.6581 14.0264C25.8972 13.9428 26.1553 14.5196 26.2735 14.6477C26.4019 14.7867 26.1806 14.0996 26.1798 14.0968C26.0479 13.6847 25.9153 13.2774 25.8222 12.8543C25.6545 12.0917 25.4217 11.2535 25.0193 10.5744C24.6345 9.92513 24.1915 9.20012 23.6772 8.64622C23.2462 8.18206 22.8999 7.61717 22.3292 7.29824C22.1026 7.17162 22.0519 6.93706 21.8545 6.77663C21.5695 6.54507 21.4458 6.25987 21.2215 5.97956C20.7526 5.39343 20.3173 4.85917 19.7094 4.40887C19.4145 4.19041 19.1652 3.92329 18.9065 3.66455C18.5711 3.32916 18.2127 3.07278 17.8281 2.79715C17.2959 2.41576 16.7007 1.96276 16.0582 1.78909C15.8376 1.72947 15.6078 1.66016 15.3783 1.66016C15.0715 1.66016 15.7999 1.79981 15.8765 1.83012C16.7653 2.18196 17.6793 2.50651 18.59 2.79715C19.1296 2.96934 19.7507 3.07229 20.2252 3.40081C20.4833 3.57948 20.7012 3.80339 20.9578 3.98103C21.2669 4.19501 21.6291 4.36234 21.9072 4.614C22.3574 5.0213 22.8979 5.24148 23.3373 5.66894C23.6196 5.94364 23.9458 6.15976 24.2164 6.44842C24.7907 7.06099 25.3315 7.68578 25.7636 8.40593C25.9382 8.6969 26.167 8.94802 26.3497 9.2323C26.5035 9.47149 26.6084 9.79101 26.7131 10.0528C26.8591 10.4179 26.9628 10.8005 27.1351 11.1546C27.2775 11.4475 27.4027 11.7038 27.475 12.022C27.6107 12.619 27.8618 13.1825 27.9556 13.792C28.0416 14.3512 27.979 14.962 27.979 15.5268C27.979 15.7941 27.672 16.1133 27.5336 16.3239C27.1614 16.8902 26.6598 17.3862 26.2325 17.9121C25.7282 18.5328 25.1292 19.5312 24.2867 19.6997" stroke="#FED1D1" stroke-width="3" stroke-linecap="round"/>
</svg>
