<svg width="28" height="18" viewBox="0 0 28 18" fill="none" xmlns="http://www.w3.org/2000/svg">
<path d="M18.731 1.71412C14.987 2.69471 11.1419 3.54322 7.48049 4.82047C6.57908 5.13491 6.01171 5.49714 5.31003 6.09486C4.04048 7.17633 3.05865 8.58358 2.48247 10.157C1.83228 11.9325 2.11219 14.6988 4.19494 15.3342C6.12445 15.9229 8.44233 15.8295 10.4474 15.9714C13.3696 16.1783 16.4069 16.162 19.3284 15.9714C22.7245 15.75 24.1935 14.2728 25.0034 11.0332C25.3867 9.5 26.1697 6.87936 24.9835 5.47758C24.1929 4.54323 22.694 2.58747 21.5188 2.1522C19.6861 1.47345 17.2295 1.49247 15.3459 1.87342C11.794 2.5918 8.08855 4.21713 5.15073 6.35373C4.48198 6.84009 3.77279 7.18892 3.51791 8.02637C3.2277 8.97992 3.27715 10.0882 3.3387 11.073C3.44155 12.7185 4.09501 13.6543 5.66846 14.2191C7.15962 14.7544 8.85332 14.4042 10.3678 14.2191C11.0678 14.1336 16.8812 13.3285 17.6159 13.2235C17.8833 13.1853 20.1776 12.8937 20.8816 12.666C23.141 11.935 24.4408 9.1467 24.7446 7.05066C25.1976 3.9251 20.9158 4.58152 18.8903 4.58152C14.6903 4.58152 9.96595 5.74047 6.78356 8.70339C5.96346 9.46693 5.15073 10.5975 5.15073 11.7699C5.15073 13.9745 6.74076 14.0465 8.6155 14.1793C12.1539 14.4301 16.5131 14.3876 19.0098 11.3916C19.6668 10.6032 20.1647 9.48844 20.1647 8.44453C20.1647 7.25887 19.3443 7.11785 18.3527 6.91127C15.9765 6.41625 12.8869 6.36486 10.8656 7.84716C9.67431 8.72077 8.54178 10.4785 8.05795 11.8695C7.60049 13.1847 9.08358 13.5576 10.0492 13.7014C12.3858 14.0494 14.9487 13.9334 17.1978 13.1837C17.8953 12.9512 19.5528 12.5849 19.7665 11.7301C20.1962 10.0111 19.4769 7.52379 17.4965 7.17014C15.589 6.82951 13.3297 7.12888 11.4829 7.60821C9.80018 8.04494 7.38991 8.64628 6.06671 9.87823C5.62975 10.2851 5.85726 11.0599 6.42513 11.2323C7.68291 11.6141 9.43439 11.3916 10.6864 11.3916C13.8977 11.3916 17.1132 11.4386 20.324 11.3717C21.5113 11.3469 22.6949 11.3044 23.8684 11.1128C24.3941 11.027 24.0803 11.0366 23.7888 11.0132C21.4876 10.8291 19.2928 10.6123 16.9787 10.8938C15.8576 11.0301 14.7496 11.2455 13.6733 11.5907C12.9218 11.8317 13.8635 11.7384 13.9919 11.7301C16.2059 11.5872 18.4768 10.8424 20.3638 9.6791C21.0513 9.25533 22.3153 8.40393 22.3153 7.44891C22.3153 6.71394 20.5467 7.24084 20.2842 7.32944C18.6861 7.8688 16.48 8.78394 15.2663 9.9977C14.884 10.3799 16.2636 9.57642 16.7398 9.32068C18.4301 8.41293 20.1493 7.47251 21.698 6.33381C24.2481 4.45872 15.8674 8.92236 13.3148 10.7942C13.2543 10.8386 13.1649 10.879 13.1555 10.9535C13.1331 11.1327 13.5112 10.8738 13.6733 10.7942C14.6635 10.3081 15.6201 9.747 16.6004 9.24103C17.9853 8.52623 22.2002 6.83765 20.6426 6.89136C18.7545 6.95647 16.4811 8.01757 14.7087 8.60383C14.5484 8.65686 10.3889 10.1343 10.4474 10.2367C10.6809 10.6453 15.5662 9.07399 16.0628 8.96226C16.8025 8.79581 17.6707 8.70386 18.3726 8.3848C18.8465 8.16937 17.3748 8.69108 16.8991 8.90252C15.6196 9.47115 13.9795 9.91782 12.8967 10.834C12.0631 11.5393 14.0915 11.3916 14.2905 11.3916C15.416 11.3916 16.8145 11.2503 17.7951 11.9292C18.4027 12.3498 18.3423 12.6385 19.0894 12.8253" stroke="#FED1D1" stroke-width="3" stroke-linecap="round"/>
</svg>
