<svg width="42" height="26" viewBox="0 0 42 26" fill="none" xmlns="http://www.w3.org/2000/svg">
<path d="M2.36328 14.3897C3.1015 12.9013 3.80085 11.5438 4.99429 10.3683C6.01509 9.36285 7.13775 8.47352 8.23492 7.55548C9.86997 6.18738 11.5739 5.3359 13.529 4.52876C15.7869 3.5966 18.0662 2.65238 20.5343 2.48598C22.0766 2.38201 23.6417 2.4539 25.1867 2.4539C26.2997 2.4539 27.4341 2.393 28.545 2.47529C29.9663 2.58057 31.5135 3.15097 32.7803 3.80149C33.4195 4.12974 33.6953 5.08548 33.7321 5.748C33.8221 7.36709 33.4718 9.10158 32.545 10.4539C31.3234 12.2361 29.1802 13.0181 27.4113 14.1116C26.7969 14.4914 25.0227 15.7049 25.6894 15.4271C27.4201 14.706 29.4199 14.4502 31.2402 14.0047C32.179 13.7749 33.1198 13.5531 34.0851 13.4699C34.826 13.406 35.5773 13.4773 36.3097 13.3309C37.4554 13.1017 37.9949 13.7006 38.823 14.4752C39.5686 15.1727 40.2688 15.9059 40.2883 16.9779C40.311 18.2262 40.3366 19.4215 39.6893 20.5394C39.0021 21.7264 37.7305 22.8374 36.4808 23.395C35.0943 24.0136 33.6596 24.109 32.2027 24.4003" stroke="white" stroke-width="3" stroke-linecap="round"/>
</svg>
