<svg width="52" height="26" viewBox="0 0 52 26" fill="none" xmlns="http://www.w3.org/2000/svg">
<path d="M27.7277 10.206C26.991 12.8694 25.2759 16.6163 26.9312 19.2861C27.9809 20.9792 30.2732 22.1045 32.0686 22.7509C34.6393 23.6763 37.0478 23.8262 39.7548 23.8262C41.2085 23.8262 42.4953 23.8455 43.8568 23.2885C45.317 22.6911 47.3173 22.808 48.5163 21.6756C49.8978 20.3709 50.2678 18.6207 49.4323 16.8568C48.3573 14.5873 46.8823 12.9733 44.6135 11.8389C43.5941 11.3292 42.6309 10.7396 41.6266 10.206C39.6563 9.15932 37.1095 8.50005 34.9559 7.93602C32.5098 7.29538 29.8066 7.28271 27.2896 7.33864C26.2021 7.36281 24.9172 7.60256 24.0041 8.2347C23.2946 8.72588 23.2134 9.94821 23.1478 10.7238C22.8313 14.4691 25.6154 18.1084 28.8627 19.6644C31.0507 20.7129 33.745 20.9064 35.9714 19.8835C37.4416 19.208 38.9984 18.3263 39.3167 16.5979C39.7413 14.2931 38.2205 12.6644 36.4294 11.4804C35.2106 10.6747 33.9081 10.0865 32.5465 9.56884C31.5725 9.19856 30.4481 8.97077 29.5995 8.33426C28.599 7.58388 28.0444 9.0665 27.7476 9.90735C27.1953 11.4723 26.9911 14.1291 27.9666 15.5824C29.6192 18.0444 36.0756 20.7434 37.7237 16.9763C40.3206 11.0406 29.1776 7.98479 25.159 8.63295C23.9434 8.82901 23.5997 10.3877 23.4664 11.4207C23.1931 13.5388 25.3837 13.9802 27.0108 14.5071C27.977 14.82 30.9677 15.9684 31.8097 14.8456C32.624 13.76 30.9649 12.706 30.2367 12.3168C27.1685 10.6769 23.8835 9.61242 20.4796 8.93164C18.3396 8.50364 21.6431 10.0565 22.0327 10.2259C24.2118 11.1734 26.1659 12.645 28.4445 13.3522C28.597 13.3995 31.6453 14.1711 31.0332 13.392C30.457 12.6587 29.2215 12.2355 28.3052 12.3765C27.0266 12.5732 28.2643 14.7383 28.6835 15.1443C30.9411 17.3314 35.0494 17.8399 38.0025 18.2308C38.8549 18.3436 39.9595 18.5567 40.8301 18.3701C42.6549 17.9791 40.2922 15.6153 39.9539 15.2638C38.0292 13.2637 35.7496 11.3897 33.3231 10.0268C32.719 9.68752 32.0196 9.38738 31.3119 9.56884C29.3847 10.063 29.5952 13.4197 29.7787 14.8058C30.2001 17.9896 33.0917 19.7018 36.1307 20.003C37.7066 20.1591 38.122 19.4254 38.122 18.0515C38.122 16.229 37.3807 14.9319 35.9117 13.8301C35.376 13.4283 32.34 11.1006 31.5907 11.8787C30.6909 12.8131 30.7662 14.9764 31.1925 16.1001C31.9077 17.9857 34.3955 18.5511 36.1706 18.7286C37.6575 18.8773 39.1589 18.7012 40.1929 17.5338C40.8228 16.8227 41.7533 15.8692 41.069 14.8655C40.5042 14.0371 39.1639 13.5448 38.3211 13.1929C35.3815 11.9654 32.2908 11.0832 29.1216 10.7238C28.1011 10.608 24.5692 9.7542 24.3824 11.5601C24.0618 14.6589 28.4033 16.3164 30.7146 16.8767C32.6908 17.3558 35.8027 17.867 37.6839 16.6577C38.03 16.4352 38.3158 15.8319 38.0822 15.4231C37.7702 14.8771 35.8778 15.2509 35.4537 15.4629C34.5497 15.9149 33.7916 16.6765 33.8209 17.7329C33.8576 19.053 35.0521 19.1666 36.1108 19.1666C37.0335 19.1666 37.5392 18.5354 37.3255 17.5736C37.0598 16.378 35.993 15.7145 34.9161 15.2837C33.2095 14.6011 33.3267 16.5728 33.5421 17.7329C33.9004 19.662 36.5508 20.9825 38.4008 20.8592C40.1582 20.742 40.0312 18.3499 39.7548 17.1754C39.218 14.8938 36.8278 14.0802 34.7767 13.6509C33.395 13.3617 32.5947 13.3984 32.2279 14.8655C31.9029 16.1657 32.1731 17.367 33.4625 18.0117C34.9039 18.7324 36.9673 19.1666 38.58 19.1666C38.8442 19.1666 38.0576 19.2538 37.8034 19.3259C36.8355 19.6004 35.6786 20.0047 34.936 20.7198C34.6598 20.9858 37.8138 20.8533 38.122 20.7995C39.0903 20.6302 39.9862 20.2954 40.8898 19.9233C40.9665 19.8917 42.3841 19.4653 41.3876 19.545C39.1734 19.7221 36.6017 20.1674 34.7767 21.5163C33.5193 22.4457 36.9511 21.7317 37.2458 21.6358C38.0976 21.3585 38.9125 20.9827 39.7548 20.68C40.3122 20.4797 40.5463 20.4028 39.9938 20.8592C39.5612 21.2166 37.3125 22.95 39.0778 22.95C40.4899 22.95 42.158 22.3539 43.2793 21.4964C43.8558 21.0556 44.4252 19.7146 45.2108 19.6844C45.7827 19.6624 45.7454 20.3105 46.087 20.5207C46.8372 20.9823 48.697 19.7082 49.1535 19.1866C50.068 18.1413 46.7361 18.4376 46.3657 18.4498C45.2691 18.4859 44.2465 18.6778 43.1997 19.0073C42.7999 19.1332 41.1351 19.517 40.9097 20.0428C40.7489 20.4181 44.1759 19.5125 44.4741 19.3458C45.0352 19.0323 45.9097 18.4989 45.5692 17.7329C45.1784 16.8535 45.8653 16.4875 45.9476 15.5824C46.0493 14.4631 45.2802 13.9255 44.3347 13.7106C43.1235 13.4354 42.009 12.9189 40.8699 12.4362C39.4243 11.8237 39.3976 12.3695 39.9739 13.8102C40.0048 13.8876 41.6794 16.8002 41.985 15.7815C42.221 14.9948 40.9849 13.4729 40.8301 12.5955C40.6911 11.8082 42.2897 13.9937 42.4629 14.1885C43.1344 14.9439 43.7966 15.6976 44.4143 16.4984C44.7944 16.991 45.2566 17.9151 45.848 18.2108C46.0258 18.2997 46.0073 16.2011 46.0073 15.9806C46.0073 15.5033 46.0632 14.982 46.0073 14.5071C45.9315 13.8623 44.9143 14.3558 44.5736 14.4275C43.1644 14.7241 41.5687 14.3709 40.2924 13.7704C38.8678 13.0999 38.3568 12.3868 37.7636 11.0025C37.5346 10.4682 37.1785 10.2193 37.0268 9.68831C36.9612 9.45875 35.4852 8.08262 35.2546 8.05549C34.5665 7.97454 32.4422 5.94568 33.5421 5.90494C35.6635 5.82638 37.1486 5.99039 38.8588 7.35855C40.9434 9.02627 43.5229 9.68183 45.629 11.2614C46.2354 11.7162 46.5343 12.0497 46.7043 12.8146C46.7288 12.9249 46.5534 12.6458 46.4852 12.5557C45.7581 11.5948 45.0092 10.6783 44.3745 9.64849C42.9465 7.33135 42.2249 6.02653 39.6752 5.0288C37.0793 4.01304 34.6335 2.84317 31.8695 2.34062C31.2205 2.22263 30.5711 2.48505 30.1172 2.9579C29.2596 3.8512 32.5489 4.21752 32.9049 4.29204C34.3406 4.59253 37.3049 5.06501 38.0423 6.62179C38.608 7.816 28.0157 8.45501 27.4489 8.49356C25.7316 8.61039 24.0584 8.97557 22.3513 9.13076C21.7333 9.18695 21.1063 9.7533 20.5592 10.0268C19.5104 10.5512 18.5475 10.7559 17.413 11.0025C16.1585 11.2753 15.1006 12.0383 13.9284 12.5159C12.0352 13.2872 10.0167 13.0734 8.01437 13.0734C1.39912 13.0734 21.2319 13.7903 27.8472 13.7903C36.5423 13.7903 -6.93325 13.7903 1.76186 13.7903C11.2535 13.7903 20.7451 13.7903 30.2367 13.7903" stroke="#FED1D1" stroke-width="3" stroke-linecap="round"/>
</svg>
