<svg width="125" height="90" viewBox="0 0 125 90" fill="none" xmlns="http://www.w3.org/2000/svg">
<path d="M49.1145 36.8106C44.1097 37.4666 39.0935 38.0907 34.1961 39.3531C32.3266 39.835 30.5868 40.4614 29.4897 42.1499C27.4583 45.2765 25.4363 50.1155 26.089 53.892C26.7157 57.5184 30.2281 59.9015 33.3173 61.4119C38.4703 63.9313 43.6645 64.9922 49.3889 64.38C54.8354 63.7975 61.303 62.7052 66.3676 60.4772C69.5703 59.0682 72.2325 56.1623 73.3892 52.8974C73.7915 51.762 74.5841 50.6327 74.7228 49.4282C74.8773 48.0877 74.3152 46.7002 73.9737 45.426C73.3448 43.0788 72.9328 40.4218 71.3101 38.5015C69.9151 36.8508 66.6447 34.8317 64.5608 34.1267C62.2705 33.352 59.453 34.0499 57.0772 33.9496C53.1463 33.7836 49.9223 34.4119 46.1557 35.4211C44.5009 35.8645 42.9097 35.6111 41.2983 35.9952C38.9473 36.5557 36.6196 37.2489 34.2849 37.8745C33.1102 38.1892 31.6693 38.3634 30.6301 39.0154C30.2087 39.2798 29.0347 39.8262 29.0249 40.4154C29.0117 41.2197 29.1459 41.0781 28.5712 41.5878" stroke="#F3D3C8" stroke-width="50" stroke-linecap="round"/>
<path d="M20.121 15.4812C16.7587 17.082 14.3543 18.3934 15.3765 22.2083C15.792 23.7591 15.7253 24.4764 17.4991 24.5494C19.5825 24.635 21.6669 23.7963 23.6607 23.2621C25.1319 22.8679 25.0673 22.0792 25.1513 20.6803" stroke="#F3D3C8" stroke-width="20" stroke-linecap="round"/>
<path d="M81.6288 14.2772C79.8708 15.499 79.1881 16.0275 79.7324 18.0589C80.0797 19.3551 81.1384 20.7045 82.6966 19.7702C83.3864 19.3567 82.3229 16.8676 82.1744 16.3133C81.7065 14.5671 81.7551 12.7266 79.7258 12.6048" stroke="#F3D3C8" stroke-width="20" stroke-linecap="round"/>
<path d="M47.0625 61.7286L51.1348 60.6375" stroke="#47361B" stroke-width="5" stroke-linecap="round"/>
<path d="M46.7104 71.282C51.2995 70.7928 57.027 70.062 60.9634 67.4629" stroke="#47361B" stroke-width="3" stroke-linecap="round"/>
<path d="M61.0291 46.2788C59.8494 47.6722 58.6642 49.4748 57.1229 50.5181C57.0635 50.5583 56.6675 50.8217 56.783 50.9207C56.9664 51.078 57.4352 51.1045 57.6396 51.1389C58.1538 51.2253 58.6701 51.2802 59.1891 51.3272C59.8172 51.384 60.5545 51.3154 61.1625 51.4993C61.4292 51.5799 61.6797 51.7264 61.9478 51.8145C62.4576 51.9819 63.0863 51.953 63.6306 52.0644" stroke="#47351B" stroke-width="3" stroke-linecap="round"/>
<path d="M36.8767 52.9281C36.8129 53.4537 36.5466 54.3399 37.1617 54.6817C37.4923 54.8654 37.9526 54.7423 38.2924 54.6513C38.7622 54.5254 39.0447 54.1268 39.0737 53.6437C39.0985 53.2309 38.9535 52.8321 38.8481 52.4388C38.7451 52.0543 38.7717 51.7985 38.3265 51.7998C37.3356 51.8028 36.2931 52.0539 35.8636 53.0341C35.3822 54.1329 35.7341 55.3689 36.8705 55.811C37.4703 56.0442 38.8794 55.7173 39.4173 55.3622C39.8912 55.0493 39.8003 54.0306 39.6817 53.5879C39.3617 52.3939 37.1531 51.7604 36.2987 52.7325" stroke="#47351B" stroke-width="3" stroke-linecap="round"/>
<path d="M35.8685 52.6404C35.0024 53.1106 35.3591 54.9475 35.9742 55.6096C36.4447 56.1159 37.5373 55.6612 38.0789 55.4738C38.8442 55.209 38.7032 54.43 38.5477 53.8495C38.3431 53.086 38.32 52.8642 37.5737 52.6117" stroke="#47351B" stroke-width="3" stroke-linecap="round"/>
<path d="M112.116 12.0416C110.655 15.0783 109.126 18.0965 107.844 21.2152C107.297 22.5475 106.968 24.0912 106.246 25.3464C105.861 26.0154 105.534 26.5054 105.274 27.2642C105.187 27.5152 104.364 29.4846 104.661 29.5705C105.403 29.7853 106.869 29.0709 107.504 28.8689C109.259 28.3101 110.986 27.7016 112.656 26.9294C114.437 26.1058 116.214 25.256 117.971 24.3837C118.648 24.0476 119.551 23.6433 120.106 23.1301C120.945 22.3545 119.754 22.2146 119.026 21.9645C116.193 20.9916 113.519 20.3327 110.563 19.8307C108.625 19.5016 106.772 18.9485 104.916 18.3112C104.62 18.2092 103.8 17.7767 103.444 18.0263C102.701 18.548 108.969 23.4402 109.481 23.8302C111.456 25.3357 113.467 26.7824 115.362 28.3886C116.095 29.01 116.766 29.7327 117.605 30.2184C118.082 30.4949 118.543 30.7915 119.014 31.0777C119.115 31.1387 118.147 30.4428 117.973 30.2565C116.659 28.8538 115.91 26.4775 115.21 24.716C114.58 23.1298 113.865 21.6923 113.408 20.0353C112.997 18.5409 112.129 16.9342 112.276 15.3638C112.345 14.633 112.469 13.6888 111.998 13.0386C111.962 12.989 110.174 18.1484 110.025 18.785C109.626 20.4788 109.211 22.1771 108.858 23.8812C108.797 24.1739 108.758 25.0012 108.954 24.7753C110.126 23.4315 111.226 18.2518 111.392 20.0273C111.58 22.0276 110.302 24.3775 109.672 26.2137C109.65 26.2777 108.972 28.4919 108.752 28.3041C108.265 27.8892 109.891 24.4005 110.07 23.878C110.118 23.7385 110.853 22.0716 110.487 21.946C109.754 21.6945 108.329 23.8566 108.006 24.2728C107.409 25.0389 106.171 27.0652 108.185 26.1006C109.889 25.2846 111.618 24.1059 113.181 23.0479C114.335 22.2676 113.908 23.2826 113.632 24.0858C113.593 24.2012 113.206 24.9707 113.481 25.0493C114.266 25.2742 115.72 24.3305 116.432 24.098C117.64 23.7033 118.486 23.766 116.971 23.2456C116.476 23.0757 115.981 22.9057 115.487 22.7358C114.826 22.5091 114.067 22.1125 113.373 22.0321C112.763 21.9614 114.574 22.8198 114.843 22.9121" stroke="#FFD495" stroke-width="3" stroke-linecap="round"/>
</svg>
